<svg width="36" height="37" viewBox="0 0 36 37" fill="none" xmlns="http://www.w3.org/2000/svg">
<g id="Icon" clip-path="url(#clip0_123_2781)">
<path id="Vector" d="M27.502 11.4482L23.4688 12.9521V24.5732C23.4688 25.348 23.2067 25.9974 22.6826 26.5215C22.1585 27.0456 21.5091 27.3076 20.7344 27.3076H18.5469V34.9639C18.5469 35.3285 18.3646 35.5107 18 35.5107H1.04688C0.682292 35.5107 0.5 35.3285 0.5 34.9639V27.3076C0.5 25.8037 1.03548 24.5163 2.10645 23.4453C3.17741 22.3743 4.46484 21.8389 5.96875 21.8389H7.0625V20.7451C6.28776 20.1982 5.7181 19.4691 5.35352 18.5576H4.60156C4.55599 18.5576 4.51042 18.5576 4.46484 18.5576C3.91797 18.5576 3.46224 18.3753 3.09766 18.0107C2.73307 17.6462 2.55078 17.1904 2.55078 16.6436C2.55078 16.1878 2.72168 15.7663 3.06348 15.3789C3.40527 14.9915 3.82682 14.7751 4.32812 14.7295V13.6357C4.32812 11.9951 4.92057 10.5824 6.10547 9.39746C7.29036 8.21257 8.70312 7.62012 10.3438 7.62012C11.9844 7.62012 13.3971 8.21257 14.582 9.39746C15.7669 10.5824 16.3594 11.9951 16.3594 13.6357V14.7295C16.5872 14.7751 16.8037 14.8548 17.0088 14.9688C17.2139 15.0827 17.3848 15.2308 17.5215 15.4131C17.6582 15.5954 17.7721 15.7891 17.8633 15.9941C17.9544 16.1992 18 16.4157 18 16.6436C18 17.1904 17.8177 17.6462 17.4531 18.0107C17.0885 18.3753 16.6328 18.5576 16.0859 18.5576H15.334C14.9694 19.4235 14.3997 20.1527 13.625 20.7451V21.8389H19.0938V16.917C19.0938 16.5524 19.276 16.3701 19.6406 16.3701H20.1875V15.208C20.0508 15.2536 19.8913 15.2764 19.709 15.2764C18.9342 15.2764 18.2734 15.0029 17.7266 14.4561C17.1797 13.9092 16.9062 13.2484 16.9062 12.4736C16.9062 11.6989 17.1797 11.0381 17.7266 10.4912L19.0938 9.05566L20.7344 4.68066C20.8255 4.4528 21.0078 4.33887 21.2812 4.33887C21.418 4.33887 21.5547 4.38444 21.6914 4.47559L22.9219 5.77441C23.4232 5.27311 24.0156 5.02246 24.6992 5.02246C25.3828 5.02246 25.9639 5.26172 26.4424 5.74023C26.9209 6.21875 27.1602 6.7998 27.1602 7.4834C27.1602 8.16699 26.9095 8.75944 26.4082 9.26074L27.707 10.4912C27.7982 10.6279 27.8438 10.7646 27.8438 10.9014C27.8438 11.1748 27.7298 11.3571 27.502 11.4482ZM25.9297 7.62012C25.9297 7.25553 25.793 6.93652 25.5195 6.66309C25.2461 6.38965 24.9271 6.25293 24.5625 6.25293C24.2435 6.25293 23.9473 6.34408 23.6738 6.52637L25.6562 8.50879C25.8385 8.23535 25.9297 7.93913 25.9297 7.62012ZM21.4863 5.84277L20.3242 9.05566L23.127 11.8584L26.3398 10.6963L21.4863 5.84277ZM18 12.4395C18 12.4395 18 12.5591 18 12.7983C18 13.0376 18.1709 13.3281 18.5127 13.6699C18.8545 14.0117 19.2646 14.1826 19.7432 14.1826C20.2217 14.1826 20.6204 14.0231 20.9395 13.7041L22.1699 12.4736L19.709 10.0127L18.4785 11.2432C18.1595 11.5622 18 11.9609 18 12.4395ZM21.2812 14.7979V16.3701H22.375V13.7725L21.6914 14.4561C21.5547 14.5928 21.418 14.7067 21.2812 14.7979ZM7.33594 22.9326H6.17383L7.4043 26.5557L9.45508 25.4619L7.33594 22.9326ZM13.3516 22.9326L11.2324 25.4619L13.2832 26.5557L14.5137 22.9326H13.3516ZM16.0859 17.4639C16.6328 17.4639 16.9062 17.1904 16.9062 16.6436C16.9062 16.0967 16.6328 15.8232 16.0859 15.8232H15.8125V16.3701C15.8125 16.7347 15.7669 17.0993 15.6758 17.4639H16.0859ZM4.60156 17.4639H5.01172C4.92057 17.0993 4.875 16.7347 4.875 16.3701V15.8232H4.60156C4.05469 15.8232 3.78125 16.0967 3.78125 16.6436C3.78125 17.1904 4.05469 17.4639 4.60156 17.4639ZM5.42188 13.6357V14.7295C6.33333 14.7295 7.0625 14.3649 7.60938 13.6357L8.29297 12.7471C8.38411 12.6104 8.52083 12.542 8.70312 12.542C8.88542 12.542 9.02214 12.6104 9.11328 12.7471L9.79688 13.6357C10.3438 14.3649 11.0729 14.7295 11.9844 14.7295H15.2656V13.6357C15.2656 12.2686 14.7871 11.1064 13.8301 10.1494C12.873 9.19238 11.7109 8.71387 10.3438 8.71387C8.97656 8.71387 7.81445 9.19238 6.85742 10.1494C5.90039 11.1064 5.42188 12.2686 5.42188 13.6357ZM5.96875 16.3701C5.96875 17.555 6.40169 18.5804 7.26758 19.4463C8.13346 20.3122 9.15885 20.7451 10.3438 20.7451C11.5286 20.7451 12.554 20.3122 13.4199 19.4463C14.2858 18.5804 14.7188 17.555 14.7188 16.3701V15.8232H11.9844C11.4375 15.8232 10.8678 15.6751 10.2754 15.3789C9.68294 15.0827 9.22721 14.7295 8.9082 14.3193L8.70312 13.9775L8.49805 14.3193C7.86003 15.1396 7.01693 15.6182 5.96875 15.7549V16.3701ZM12.5312 21.3604C11.8477 21.6794 11.1185 21.8389 10.3438 21.8389C9.56901 21.8389 8.83984 21.6794 8.15625 21.3604V22.1807L10.3438 24.8467L12.5312 22.1807V21.3604ZM22.375 24.5732V17.4639H20.1875V22.3857C20.1875 22.7503 20.0052 22.9326 19.6406 22.9326H15.6758L14.1719 27.5127C14.0807 27.7406 13.8984 27.8545 13.625 27.8545C13.5339 27.8545 13.4427 27.8317 13.3516 27.7861L10.3438 26.2822L7.33594 27.7861C7.24479 27.8317 7.15365 27.8545 7.0625 27.8545C6.78906 27.8545 6.60677 27.7406 6.51562 27.5127L5.08008 23.001C4.44206 23.1377 3.861 23.4225 3.33691 23.8555C2.81283 24.2884 2.39128 24.8125 2.07227 25.4277C1.75326 26.043 1.59375 26.6696 1.59375 27.3076V34.417H3.78125V29.4951H4.875V34.417H17.4531V25.1201H18.5469V26.2139H20.7344C21.1901 26.2139 21.5775 26.0544 21.8965 25.7354C22.2155 25.4163 22.375 25.029 22.375 24.5732ZM27.4336 3.92871L29.0742 2.28809L29.8945 3.1084L28.2539 4.74902L27.4336 3.92871ZM25.6562 1.60449H26.75V3.79199H25.6562V1.60449ZM28.3906 5.43262H30.5781V6.52637H28.3906V5.43262ZM30.0312 27.8545V28.9482H31.125V30.042H29.6895L30.9883 31.2725C31.0794 31.4092 31.125 31.5459 31.125 31.6826C31.125 31.7738 31.1022 31.8421 31.0566 31.8877C30.9655 32.1156 30.806 32.2295 30.5781 32.2295H30.0312V33.3232H28.9375V32.2295H27.8438V31.1357H29.2793L27.9805 29.9053C27.8893 29.7686 27.8438 29.6318 27.8438 29.4951C27.8438 29.404 27.8665 29.3356 27.9121 29.29C28.0033 29.0622 28.1628 28.9482 28.3906 28.9482H28.9375V27.8545H30.0312ZM25.998 27.1025C25.998 27.1025 26.2373 26.8633 26.7158 26.3848C27.1943 25.9062 28.1172 25.667 29.4844 25.667C30.8516 25.667 32.0137 26.1455 32.9707 27.1025C33.9277 28.0596 34.4062 29.2217 34.4062 30.5889C34.4062 31.9561 33.9277 33.1182 32.9707 34.0752C32.0137 35.0322 30.8516 35.5107 29.4844 35.5107C28.1172 35.5107 26.9551 35.0322 25.998 34.0752C25.041 33.1182 24.5625 31.9561 24.5625 30.5889C24.5625 29.2217 25.041 28.0596 25.998 27.1025ZM26.7842 33.2891C26.7842 33.2891 26.9722 33.4771 27.3481 33.853C27.7241 34.229 28.4362 34.417 29.4844 34.417C30.5326 34.417 31.4326 34.041 32.1846 33.2891C32.9365 32.5371 33.3125 31.637 33.3125 30.5889C33.3125 29.5407 32.9365 28.6406 32.1846 27.8887C31.4326 27.1367 30.5326 26.7607 29.4844 26.7607C28.4362 26.7607 27.5361 27.1367 26.7842 27.8887C26.0322 28.6406 25.6562 29.5407 25.6562 30.5889C25.6562 31.637 26.0322 32.5371 26.7842 33.2891ZM28.9375 16.917H30.0312V18.0107H31.125V19.1045H29.6895L30.9883 20.335C31.0794 20.4717 31.125 20.6084 31.125 20.7451C31.125 20.8363 31.1022 20.9046 31.0566 20.9502C30.9655 21.1781 30.806 21.292 30.5781 21.292H30.0312V22.3857H28.9375V21.292H27.8438V20.1982H29.2793L27.9805 18.9678C27.8893 18.8311 27.8438 18.6943 27.8438 18.5576C27.8438 18.4665 27.8665 18.3981 27.9121 18.3525C28.0033 18.1247 28.1628 18.0107 28.3906 18.0107H28.9375V16.917ZM25.998 23.1377C25.998 23.1377 25.7588 22.8984 25.2803 22.4199C24.8018 21.9414 24.5625 21.0186 24.5625 19.6514C24.5625 18.2842 25.041 17.1221 25.998 16.165C26.9551 15.208 28.1172 14.7295 29.4844 14.7295C30.8516 14.7295 32.0137 15.208 32.9707 16.165C33.9277 17.1221 34.4062 18.2842 34.4062 19.6514C34.4062 21.0186 33.9277 22.1807 32.9707 23.1377C32.0137 24.0947 30.8516 24.5732 29.4844 24.5732C28.1172 24.5732 26.9551 24.0947 25.998 23.1377ZM32.1846 22.3516C32.1846 22.3516 32.3726 22.1636 32.7485 21.7876C33.1245 21.4116 33.3125 20.6995 33.3125 19.6514C33.3125 18.6032 32.9365 17.7031 32.1846 16.9512C31.4326 16.1992 30.5326 15.8232 29.4844 15.8232C28.4362 15.8232 27.5361 16.1992 26.7842 16.9512C26.0322 17.7031 25.6562 18.6032 25.6562 19.6514C25.6562 20.6995 26.0322 21.5996 26.7842 22.3516C27.5361 23.1035 28.4362 23.4795 29.4844 23.4795C30.5326 23.4795 31.4326 23.1035 32.1846 22.3516Z" fill="white"/>
</g>
<defs>
<clipPath id="clip0_123_2781">
<rect width="35" height="36.4" fill="white" transform="matrix(1 0 0 -1 0.5 36.8604)"/>
</clipPath>
</defs>
</svg>
