<svg width="36" height="37" viewBox="0 0 36 37" fill="none" xmlns="http://www.w3.org/2000/svg">
<g id="Icon" clip-path="url(#clip0_123_2769)">
<path id="Vector" d="M34.4062 1.60449V27.8545H19.709C18.1595 29.3128 16.3138 30.042 14.1719 30.042C12.8958 30.042 11.6654 29.7458 10.4805 29.1533L6.10547 34.417C5.46745 35.1462 4.64714 35.5107 3.64453 35.5107C2.77865 35.5107 2.03809 35.2031 1.42285 34.5879C0.807617 33.9727 0.5 33.2321 0.5 32.3662C0.5 31.3636 0.864583 30.5433 1.59375 29.9053L6.85742 25.5303C6.26497 24.3454 5.96875 23.1149 5.96875 21.8389C5.96875 20.3805 6.33333 19.0133 7.0625 17.7373V1.60449H34.4062ZM33.3125 2.69824H8.15625V5.97949H33.3125V2.69824ZM5.2168 33.665L9.52344 28.6064C8.70312 28.014 7.99674 27.3076 7.4043 26.4873L2.3457 30.7939C1.8444 31.2041 1.59375 31.7282 1.59375 32.3662C1.59375 32.9131 1.79883 33.3916 2.20898 33.8018C2.61914 34.2119 3.09766 34.417 3.64453 34.417C4.28255 34.417 4.80664 34.1663 5.2168 33.665ZM9.14746 26.8633C9.14746 26.8633 9.49495 27.2108 10.1899 27.9058C10.8849 28.6007 12.2122 28.9482 14.1719 28.9482C16.1315 28.9482 17.8063 28.2533 19.1963 26.8633C20.5863 25.4733 21.2812 23.7985 21.2812 21.8389C21.2812 20.1982 20.7572 18.7171 19.709 17.3955C19.4355 17.7145 19.1621 17.9652 18.8887 18.1475C19.7546 19.2412 20.1875 20.4717 20.1875 21.8389C20.1875 23.4795 19.5951 24.8923 18.4102 26.0771C17.2253 27.262 15.8125 27.8545 14.1719 27.8545C12.5312 27.8545 11.1185 27.262 9.93359 26.0771C8.7487 24.8923 8.15625 23.4795 8.15625 21.8389C8.15625 20.7451 8.42969 19.7311 8.97656 18.7969C9.52344 17.8626 10.2754 17.1221 11.2324 16.5752C11.0046 16.3018 10.8223 15.9827 10.6855 15.6182C10.1387 15.9372 9.63737 16.3245 9.18164 16.7803C8.72591 17.236 8.34993 17.7259 8.05371 18.25C7.75749 18.7741 7.51823 19.3438 7.33594 19.959C7.15365 20.5742 7.0625 21.2008 7.0625 21.8389C7.0625 23.7985 7.75749 25.4733 9.14746 26.8633ZM26.75 13.6357H30.0312V14.7295H30.5781C30.9427 14.7295 31.125 14.5472 31.125 14.1826V13.0889C31.125 12.7243 30.9427 12.542 30.5781 12.542H20.0508L19.9141 12.2002C19.5951 11.2887 19.0596 10.571 18.3076 10.0469C17.5557 9.52279 16.724 9.26074 15.8125 9.26074C15.8125 9.26074 15.7669 9.26074 15.6758 9.26074C14.5365 9.30632 13.5566 9.73926 12.7363 10.5596C11.916 11.3799 11.4831 12.3597 11.4375 13.499C11.3919 14.7295 11.8021 15.7891 12.668 16.6777C13.5339 17.5664 14.582 18.0107 15.8125 18.0107C16.724 18.0107 17.5557 17.7373 18.3076 17.1904C19.0596 16.6436 19.5951 15.9372 19.9141 15.0713L20.0508 14.7295H22.375V13.6357H25.6562V14.7295H26.75V13.6357ZM11.916 17.4639C11.0957 17.874 10.4463 18.4779 9.96777 19.2754C9.48926 20.0729 9.25 20.9274 9.25 21.8389C9.25 23.2061 9.72852 24.3682 10.6855 25.3252C11.6426 26.2822 12.8047 26.7607 14.1719 26.7607C15.5391 26.7607 16.7012 26.2822 17.6582 25.3252C18.6152 24.3682 19.0938 23.2061 19.0938 21.8389C19.0938 20.654 18.7064 19.6058 17.9316 18.6943C17.248 18.9678 16.5417 19.1045 15.8125 19.1045C14.3086 19.1045 13.0098 18.5576 11.916 17.4639ZM20.7344 26.7607H33.3125V7.07324H8.15625V16.3018C8.79427 15.5726 9.54622 14.9801 10.4121 14.5244C10.3665 14.2054 10.3438 13.8636 10.3438 13.499C10.3893 12.0863 10.9248 10.8558 11.9502 9.80762C12.9756 8.75944 14.1947 8.21257 15.6074 8.16699C16.7467 8.12142 17.7835 8.40625 18.7178 9.02148C19.652 9.63672 20.347 10.4456 20.8027 11.4482H30.5781C31.0339 11.4482 31.4212 11.6077 31.7402 11.9268C32.0592 12.2458 32.2188 12.6331 32.2188 13.0889V14.1826C32.2188 14.6383 32.0592 15.0257 31.7402 15.3447C31.4212 15.6637 31.0339 15.8232 30.5781 15.8232H28.9375V14.7295H27.8438V15.8232H24.5625V14.7295H23.4688V15.8232H20.8027C20.7116 16.0511 20.5977 16.3018 20.4609 16.5752C21.737 18.0791 22.375 19.8337 22.375 21.8389C22.375 23.6618 21.8281 25.3024 20.7344 26.7607ZM9.25 3.79199H10.3438V4.88574H9.25V3.79199ZM11.4375 3.79199H12.5312V4.88574H11.4375V3.79199ZM13.625 3.79199H14.7188V4.88574H13.625V3.79199ZM13.1807 12.0977C13.1807 12.0977 13.2889 11.9894 13.5054 11.7729C13.7218 11.5565 14.1263 11.4482 14.7188 11.4482C15.3112 11.4482 15.8239 11.6647 16.2568 12.0977C16.6898 12.5306 16.9062 13.0433 16.9062 13.6357C16.9062 14.2282 16.6898 14.7409 16.2568 15.1738C15.8239 15.6068 15.3112 15.8232 14.7188 15.8232C14.1263 15.8232 13.6136 15.6068 13.1807 15.1738C12.7477 14.7409 12.5312 14.2282 12.5312 13.6357C12.5312 13.0433 12.7477 12.5306 13.1807 12.0977ZM13.9326 14.4219C13.9326 14.4219 13.9839 14.4731 14.0864 14.5757C14.189 14.6782 14.3997 14.7295 14.7188 14.7295C15.0378 14.7295 15.2998 14.627 15.5049 14.4219C15.71 14.2168 15.8125 13.9548 15.8125 13.6357C15.8125 13.3167 15.71 13.0547 15.5049 12.8496C15.2998 12.6445 15.0378 12.542 14.7188 12.542C14.3997 12.542 14.1377 12.6445 13.9326 12.8496C13.7275 13.0547 13.625 13.3167 13.625 13.6357C13.625 13.9548 13.7275 14.2168 13.9326 14.4219ZM26.75 24.5732H27.8438V25.667H26.75V24.5732ZM31.125 24.5732H32.2188V25.667H31.125V24.5732ZM28.9375 24.5732H30.0312V25.667H28.9375V24.5732ZM24.5625 22.3857H32.2188V23.4795H24.5625V22.3857ZM24.5625 20.1982H32.2188V21.292H24.5625V20.1982ZM24.5625 18.0107H32.2188V19.1045H24.5625V18.0107ZM14.1719 25.667C13.1237 25.667 12.2236 25.291 11.4717 24.5391C10.7197 23.7871 10.3438 22.887 10.3438 21.8389H11.4375C11.4375 22.6136 11.6995 23.263 12.2236 23.7871C12.7477 24.3112 13.3971 24.5732 14.1719 24.5732V25.667ZM3.37109 31.8193L4.12305 31.1357L4.875 31.8877L4.19141 32.6396L3.37109 31.8193ZM4.875 30.3154L5.69531 29.5635L6.44727 30.3154L5.69531 31.1357L4.875 30.3154ZM6.44727 28.8115L7.19922 27.9912L8.01953 28.8115L7.19922 29.5635L6.44727 28.8115Z" fill="white"/>
</g>
<defs>
<clipPath id="clip0_123_2769">
<rect width="35" height="36.4" fill="white" transform="matrix(1 0 0 -1 0.5 36.8604)"/>
</clipPath>
</defs>
</svg>
