<svg width="36" height="37" viewBox="0 0 36 37" fill="none" xmlns="http://www.w3.org/2000/svg">
<g id="Icon" clip-path="url(#clip0_188_28)">
<path id="Vector" d="M27.502 10.9883L23.4688 12.4922V24.1133C23.4688 24.888 23.2067 25.5374 22.6826 26.0615C22.1585 26.5856 21.5091 26.8477 20.7344 26.8477H18.5469V34.5039C18.5469 34.8685 18.3646 35.0508 18 35.0508H1.04688C0.682292 35.0508 0.5 34.8685 0.5 34.5039V26.8477C0.5 25.3438 1.03548 24.0563 2.10645 22.9854C3.17741 21.9144 4.46484 21.3789 5.96875 21.3789H7.0625V20.2852C6.28776 19.7383 5.7181 19.0091 5.35352 18.0977H4.60156C4.55599 18.0977 4.51042 18.0977 4.46484 18.0977C3.91797 18.0977 3.46224 17.9154 3.09766 17.5508C2.73307 17.1862 2.55078 16.7305 2.55078 16.1836C2.55078 15.7279 2.72168 15.3063 3.06348 14.9189C3.40527 14.5316 3.82682 14.3151 4.32812 14.2695V13.1758C4.32812 11.5352 4.92057 10.1224 6.10547 8.9375C7.29036 7.7526 8.70312 7.16016 10.3438 7.16016C11.9844 7.16016 13.3971 7.7526 14.582 8.9375C15.7669 10.1224 16.3594 11.5352 16.3594 13.1758V14.2695C16.5872 14.3151 16.8037 14.3949 17.0088 14.5088C17.2139 14.6227 17.3848 14.7708 17.5215 14.9531C17.6582 15.1354 17.7721 15.3291 17.8633 15.5342C17.9544 15.7393 18 15.9557 18 16.1836C18 16.7305 17.8177 17.1862 17.4531 17.5508C17.0885 17.9154 16.6328 18.0977 16.0859 18.0977H15.334C14.9694 18.9635 14.3997 19.6927 13.625 20.2852V21.3789H19.0938V16.457C19.0938 16.0924 19.276 15.9102 19.6406 15.9102H20.1875V14.748C20.0508 14.7936 19.8913 14.8164 19.709 14.8164C18.9342 14.8164 18.2734 14.543 17.7266 13.9961C17.1797 13.4492 16.9062 12.7884 16.9062 12.0137C16.9062 11.2389 17.1797 10.5781 17.7266 10.0312L19.0938 8.5957L20.7344 4.2207C20.8255 3.99284 21.0078 3.87891 21.2812 3.87891C21.418 3.87891 21.5547 3.92448 21.6914 4.01562L22.9219 5.31445C23.4232 4.81315 24.0156 4.5625 24.6992 4.5625C25.3828 4.5625 25.9639 4.80176 26.4424 5.28027C26.9209 5.75879 27.1602 6.33984 27.1602 7.02344C27.1602 7.70703 26.9095 8.29948 26.4082 8.80078L27.707 10.0312C27.7982 10.168 27.8438 10.3047 27.8438 10.4414C27.8438 10.7148 27.7298 10.8971 27.502 10.9883ZM25.9297 7.16016C25.9297 6.79557 25.793 6.47656 25.5195 6.20312C25.2461 5.92969 24.9271 5.79297 24.5625 5.79297C24.2435 5.79297 23.9473 5.88411 23.6738 6.06641L25.6562 8.04883C25.8385 7.77539 25.9297 7.47917 25.9297 7.16016ZM21.4863 5.38281L20.3242 8.5957L23.127 11.3984L26.3398 10.2363L21.4863 5.38281ZM18 11.9795C18 11.9795 18 12.0991 18 12.3384C18 12.5776 18.1709 12.8682 18.5127 13.21C18.8545 13.5518 19.2646 13.7227 19.7432 13.7227C20.2217 13.7227 20.6204 13.5632 20.9395 13.2441L22.1699 12.0137L19.709 9.55273L18.4785 10.7832C18.1595 11.1022 18 11.501 18 11.9795ZM21.2812 14.3379V15.9102H22.375V13.3125L21.6914 13.9961C21.5547 14.1328 21.418 14.2467 21.2812 14.3379ZM7.33594 22.4727H6.17383L7.4043 26.0957L9.45508 25.002L7.33594 22.4727ZM13.3516 22.4727L11.2324 25.002L13.2832 26.0957L14.5137 22.4727H13.3516ZM16.0859 17.0039C16.6328 17.0039 16.9062 16.7305 16.9062 16.1836C16.9062 15.6367 16.6328 15.3633 16.0859 15.3633H15.8125V15.9102C15.8125 16.2747 15.7669 16.6393 15.6758 17.0039H16.0859ZM4.60156 17.0039H5.01172C4.92057 16.6393 4.875 16.2747 4.875 15.9102V15.3633H4.60156C4.05469 15.3633 3.78125 15.6367 3.78125 16.1836C3.78125 16.7305 4.05469 17.0039 4.60156 17.0039ZM5.42188 13.1758V14.2695C6.33333 14.2695 7.0625 13.9049 7.60938 13.1758L8.29297 12.2871C8.38411 12.1504 8.52083 12.082 8.70312 12.082C8.88542 12.082 9.02214 12.1504 9.11328 12.2871L9.79688 13.1758C10.3438 13.9049 11.0729 14.2695 11.9844 14.2695H15.2656V13.1758C15.2656 11.8086 14.7871 10.6465 13.8301 9.68945C12.873 8.73242 11.7109 8.25391 10.3438 8.25391C8.97656 8.25391 7.81445 8.73242 6.85742 9.68945C5.90039 10.6465 5.42188 11.8086 5.42188 13.1758ZM5.96875 15.9102C5.96875 17.0951 6.40169 18.1204 7.26758 18.9863C8.13346 19.8522 9.15885 20.2852 10.3438 20.2852C11.5286 20.2852 12.554 19.8522 13.4199 18.9863C14.2858 18.1204 14.7188 17.0951 14.7188 15.9102V15.3633H11.9844C11.4375 15.3633 10.8678 15.2152 10.2754 14.9189C9.68294 14.6227 9.22721 14.2695 8.9082 13.8594L8.70312 13.5176L8.49805 13.8594C7.86003 14.6797 7.01693 15.1582 5.96875 15.2949V15.9102ZM12.5312 20.9004C11.8477 21.2194 11.1185 21.3789 10.3438 21.3789C9.56901 21.3789 8.83984 21.2194 8.15625 20.9004V21.7207L10.3438 24.3867L12.5312 21.7207V20.9004ZM22.375 24.1133V17.0039H20.1875V21.9258C20.1875 22.2904 20.0052 22.4727 19.6406 22.4727H15.6758L14.1719 27.0527C14.0807 27.2806 13.8984 27.3945 13.625 27.3945C13.5339 27.3945 13.4427 27.3717 13.3516 27.3262L10.3438 25.8223L7.33594 27.3262C7.24479 27.3717 7.15365 27.3945 7.0625 27.3945C6.78906 27.3945 6.60677 27.2806 6.51562 27.0527L5.08008 22.541C4.44206 22.6777 3.861 22.9626 3.33691 23.3955C2.81283 23.8285 2.39128 24.3525 2.07227 24.9678C1.75326 25.583 1.59375 26.2096 1.59375 26.8477V33.957H3.78125V29.0352H4.875V33.957H17.4531V24.6602H18.5469V25.7539H20.7344C21.1901 25.7539 21.5775 25.5944 21.8965 25.2754C22.2155 24.9564 22.375 24.569 22.375 24.1133ZM27.4336 3.46875L29.0742 1.82812L29.8945 2.64844L28.2539 4.28906L27.4336 3.46875ZM25.6562 1.14453H26.75V3.33203H25.6562V1.14453ZM28.3906 4.97266H30.5781V6.06641H28.3906V4.97266ZM30.0312 27.3945V28.4883H31.125V29.582H29.6895L30.9883 30.8125C31.0794 30.9492 31.125 31.0859 31.125 31.2227C31.125 31.3138 31.1022 31.3822 31.0566 31.4277C30.9655 31.6556 30.806 31.7695 30.5781 31.7695H30.0312V32.8633H28.9375V31.7695H27.8438V30.6758H29.2793L27.9805 29.4453C27.8893 29.3086 27.8438 29.1719 27.8438 29.0352C27.8438 28.944 27.8665 28.8757 27.9121 28.8301C28.0033 28.6022 28.1628 28.4883 28.3906 28.4883H28.9375V27.3945H30.0312ZM25.998 26.6426C25.998 26.6426 26.2373 26.4033 26.7158 25.9248C27.1943 25.4463 28.1172 25.207 29.4844 25.207C30.8516 25.207 32.0137 25.6855 32.9707 26.6426C33.9277 27.5996 34.4062 28.7617 34.4062 30.1289C34.4062 31.4961 33.9277 32.6582 32.9707 33.6152C32.0137 34.5723 30.8516 35.0508 29.4844 35.0508C28.1172 35.0508 26.9551 34.5723 25.998 33.6152C25.041 32.6582 24.5625 31.4961 24.5625 30.1289C24.5625 28.7617 25.041 27.5996 25.998 26.6426ZM26.7842 32.8291C26.7842 32.8291 26.9722 33.0171 27.3481 33.3931C27.7241 33.769 28.4362 33.957 29.4844 33.957C30.5326 33.957 31.4326 33.5811 32.1846 32.8291C32.9365 32.0771 33.3125 31.1771 33.3125 30.1289C33.3125 29.0807 32.9365 28.1807 32.1846 27.4287C31.4326 26.6768 30.5326 26.3008 29.4844 26.3008C28.4362 26.3008 27.5361 26.6768 26.7842 27.4287C26.0322 28.1807 25.6562 29.0807 25.6562 30.1289C25.6562 31.1771 26.0322 32.0771 26.7842 32.8291ZM28.9375 16.457H30.0312V17.5508H31.125V18.6445H29.6895L30.9883 19.875C31.0794 20.0117 31.125 20.1484 31.125 20.2852C31.125 20.3763 31.1022 20.4447 31.0566 20.4902C30.9655 20.7181 30.806 20.832 30.5781 20.832H30.0312V21.9258H28.9375V20.832H27.8438V19.7383H29.2793L27.9805 18.5078C27.8893 18.3711 27.8438 18.2344 27.8438 18.0977C27.8438 18.0065 27.8665 17.9382 27.9121 17.8926C28.0033 17.6647 28.1628 17.5508 28.3906 17.5508H28.9375V16.457ZM25.998 22.6777C25.998 22.6777 25.7588 22.4385 25.2803 21.96C24.8018 21.4814 24.5625 20.5586 24.5625 19.1914C24.5625 17.8242 25.041 16.6621 25.998 15.7051C26.9551 14.748 28.1172 14.2695 29.4844 14.2695C30.8516 14.2695 32.0137 14.748 32.9707 15.7051C33.9277 16.6621 34.4062 17.8242 34.4062 19.1914C34.4062 20.5586 33.9277 21.7207 32.9707 22.6777C32.0137 23.6348 30.8516 24.1133 29.4844 24.1133C28.1172 24.1133 26.9551 23.6348 25.998 22.6777ZM32.1846 21.8916C32.1846 21.8916 32.3726 21.7036 32.7485 21.3276C33.1245 20.9517 33.3125 20.2396 33.3125 19.1914C33.3125 18.1432 32.9365 17.2432 32.1846 16.4912C31.4326 15.7393 30.5326 15.3633 29.4844 15.3633C28.4362 15.3633 27.5361 15.7393 26.7842 16.4912C26.0322 17.2432 25.6562 18.1432 25.6562 19.1914C25.6562 20.2396 26.0322 21.1396 26.7842 21.8916C27.5361 22.6436 28.4362 23.0195 29.4844 23.0195C30.5326 23.0195 31.4326 22.6436 32.1846 21.8916Z" fill="white"/>
</g>
<defs>
<clipPath id="clip0_188_28">
<rect width="35" height="36.4" fill="white" transform="matrix(1 0 0 -1 0.5 36.4004)"/>
</clipPath>
</defs>
</svg>
