<svg width="36" height="37" viewBox="0 0 36 37" fill="none" xmlns="http://www.w3.org/2000/svg">
<g id="Icon" clip-path="url(#clip0_123_2757)">
<path id="Vector" d="M19.6406 30.5889C20.0052 30.5889 20.1875 30.7712 20.1875 31.1357V32.2295C20.1875 33.0042 19.9255 33.6536 19.4014 34.1777C18.8773 34.7018 18.2279 34.9639 17.4531 34.9639H3.23438C2.45964 34.9639 1.81022 34.7018 1.28613 34.1777C0.762044 33.6536 0.5 33.0042 0.5 32.2295V31.1357C0.5 30.7712 0.682292 30.5889 1.04688 30.5889H2.14062V19.1045C2.14062 18.7399 2.32292 18.5576 2.6875 18.5576H7.81445C8.17904 18.5576 8.36133 18.7399 8.36133 19.1045C8.36133 19.4691 8.17904 19.6514 7.81445 19.6514H3.23438V30.5889H17.4531V25.2568C17.4531 24.8923 17.6354 24.71 18 24.71C18.3646 24.71 18.5469 24.8923 18.5469 25.2568V30.5889H19.6406ZM19.0938 32.2295V31.6826H1.59375V32.2295C1.59375 32.6852 1.75326 33.0726 2.07227 33.3916C2.39128 33.7106 2.77865 33.8701 3.23438 33.8701H4.32812V33.3232C4.32812 32.9587 4.51042 32.7764 4.875 32.7764C5.23958 32.7764 5.42188 32.9587 5.42188 33.3232V33.8701H15.2656V33.3232C15.2656 32.9587 15.4479 32.7764 15.8125 32.7764C16.1771 32.7764 16.3594 32.9587 16.3594 33.3232V33.8701H17.4531C17.9089 33.8701 18.2962 33.7106 18.6152 33.3916C18.9342 33.0726 19.0938 32.6852 19.0938 32.2295ZM28.9375 5.43262C28.5729 5.43262 28.3906 5.61491 28.3906 5.97949V6.52637H28.9375C29.3021 6.52637 29.4844 6.70866 29.4844 7.07324C29.4844 7.43783 29.3021 7.62012 28.9375 7.62012H28.3906V9.26074C28.3906 9.62533 28.2083 9.80762 27.8438 9.80762C27.4792 9.80762 27.2969 9.62533 27.2969 9.26074V7.62012H26.75C26.3854 7.62012 26.2031 7.43783 26.2031 7.07324C26.2031 6.70866 26.3854 6.52637 26.75 6.52637H27.2969V5.97949C27.2969 5.52376 27.4564 5.13639 27.7754 4.81738C28.0944 4.49837 28.4818 4.33887 28.9375 4.33887H30.0312C30.3958 4.33887 30.5781 4.52116 30.5781 4.88574C30.5781 5.25033 30.3958 5.43262 30.0312 5.43262H28.9375ZM31.6719 2.15137C32.1276 2.15137 32.515 2.31087 32.834 2.62988C33.153 2.94889 33.3125 3.33626 33.3125 3.79199V10.3545C33.3125 10.8102 33.153 11.1976 32.834 11.5166C32.515 11.8356 32.1276 11.9951 31.6719 11.9951H25.1094C24.6536 11.9951 24.2663 11.8356 23.9473 11.5166C23.6283 11.1976 23.4688 10.8102 23.4688 10.3545V7.07324C23.4688 6.70866 23.651 6.52637 24.0156 6.52637C24.3802 6.52637 24.5625 6.70866 24.5625 7.07324V10.3545C24.5625 10.7191 24.7448 10.9014 25.1094 10.9014H31.6719C32.0365 10.9014 32.2188 10.7191 32.2188 10.3545V3.79199C32.2188 3.42741 32.0365 3.24512 31.6719 3.24512H25.1094C24.7448 3.24512 24.5625 3.42741 24.5625 3.79199V4.88574C24.5625 5.25033 24.3802 5.43262 24.0156 5.43262C23.651 5.43262 23.4688 5.25033 23.4688 4.88574V3.79199C23.4688 3.33626 23.6283 2.94889 23.9473 2.62988C24.2663 2.31087 24.6536 2.15137 25.1094 2.15137H31.6719ZM26.8525 25.5645C26.8525 25.5645 26.7443 25.4562 26.5278 25.2397C26.3114 25.0233 26.2031 24.6188 26.2031 24.0264C26.2031 23.4339 26.4196 22.9212 26.8525 22.4883C27.2855 22.0553 27.7982 21.8389 28.3906 21.8389C28.9831 21.8389 29.4958 22.0553 29.9287 22.4883C30.3617 22.9212 30.5781 23.4339 30.5781 24.0264C30.5781 24.6188 30.3617 25.1315 29.9287 25.5645C29.4958 25.9974 28.9831 26.2139 28.3906 26.2139C27.7982 26.2139 27.2855 25.9974 26.8525 25.5645ZM29.1768 24.8125C29.1768 24.8125 29.228 24.7612 29.3306 24.6587C29.4331 24.5562 29.4844 24.3454 29.4844 24.0264C29.4844 23.7074 29.3818 23.4453 29.1768 23.2402C28.9717 23.0352 28.7096 22.9326 28.3906 22.9326C28.0716 22.9326 27.8096 23.0352 27.6045 23.2402C27.3994 23.4453 27.2969 23.7074 27.2969 24.0264C27.2969 24.3454 27.3994 24.6074 27.6045 24.8125C27.8096 25.0176 28.0716 25.1201 28.3906 25.1201C28.7096 25.1201 28.9717 25.0176 29.1768 24.8125ZM31.6719 19.1045C32.1276 19.1045 32.515 19.264 32.834 19.583C33.153 19.902 33.3125 20.2894 33.3125 20.7451V24.0264C33.3125 24.391 33.1302 24.5732 32.7656 24.5732C32.401 24.5732 32.2188 24.391 32.2188 24.0264V20.7451C32.2188 20.3805 32.0365 20.1982 31.6719 20.1982H25.1094C24.7448 20.1982 24.5625 20.3805 24.5625 20.7451V27.3076C24.5625 27.6722 24.7448 27.8545 25.1094 27.8545H31.6719C32.0365 27.8545 32.2188 27.6722 32.2188 27.3076V26.2139C32.2188 25.8493 32.401 25.667 32.7656 25.667C33.1302 25.667 33.3125 25.8493 33.3125 26.2139V27.3076C33.3125 27.7633 33.153 28.1507 32.834 28.4697C32.515 28.7887 32.1276 28.9482 31.6719 28.9482H25.1094C24.6536 28.9482 24.2663 28.7887 23.9473 28.4697C23.6283 28.1507 23.4688 27.7633 23.4688 27.3076V20.7451C23.4688 20.2894 23.6283 19.902 23.9473 19.583C24.2663 19.264 24.6536 19.1045 25.1094 19.1045H31.6719ZM12.8047 8.64551C12.6224 8.50879 12.5312 8.34928 12.5312 8.16699V4.88574C12.5312 4.52116 12.7135 4.33887 13.0781 4.33887C13.1693 4.33887 13.2604 4.36165 13.3516 4.40723L16.6328 6.04785C16.8151 6.139 16.9062 6.2985 16.9062 6.52637C16.9062 6.75423 16.8151 6.91374 16.6328 7.00488L13.3516 8.64551C13.2604 8.69108 13.1693 8.71387 13.0781 8.71387C12.987 8.71387 12.8958 8.69108 12.8047 8.64551ZM13.625 5.77441V7.27832L15.1289 6.52637L13.625 5.77441ZM17.6582 10.0127C17.6582 10.0127 17.4189 10.252 16.9404 10.7305C16.4619 11.209 15.5391 11.4482 14.1719 11.4482C12.8047 11.4482 11.6426 10.9697 10.6855 10.0127C9.72852 9.05566 9.25 7.89355 9.25 6.52637C9.25 5.15918 9.72852 3.99707 10.6855 3.04004C11.6426 2.08301 12.8047 1.60449 14.1719 1.60449C15.5391 1.60449 16.7012 2.08301 17.6582 3.04004C18.6152 3.99707 19.0938 5.15918 19.0938 6.52637C19.0938 7.89355 18.6152 9.05566 17.6582 10.0127ZM16.8721 3.82617C16.8721 3.82617 16.6841 3.63818 16.3081 3.26221C15.9321 2.88623 15.2201 2.69824 14.1719 2.69824C13.1237 2.69824 12.2236 3.07422 11.4717 3.82617C10.7197 4.57812 10.3438 5.47819 10.3438 6.52637C10.3438 7.57454 10.7197 8.47461 11.4717 9.22656C12.2236 9.97852 13.1237 10.3545 14.1719 10.3545C15.2201 10.3545 16.1201 9.97852 16.8721 9.22656C17.624 8.47461 18 7.57454 18 6.52637C18 5.47819 17.624 4.57812 16.8721 3.82617ZM19.6406 13.6357C19.5039 13.6357 19.39 13.5902 19.2988 13.499C19.1621 13.4079 19.0938 13.2712 19.0938 13.0889C19.0938 12.9521 19.1393 12.8382 19.2305 12.7471L20.8711 10.5596C20.9622 10.4229 21.099 10.3545 21.2812 10.3545C21.6458 10.3545 21.8281 10.5368 21.8281 10.9014C21.8281 11.0381 21.7826 11.152 21.6914 11.2432L20.0508 13.4307C19.9596 13.5674 19.8229 13.6357 19.6406 13.6357ZM20.8711 15.6182C20.7799 15.527 20.7344 15.4131 20.7344 15.2764C20.7344 15.0941 20.8027 14.9574 20.9395 14.8662L23.127 13.2256C23.2181 13.1344 23.332 13.0889 23.4688 13.0889C23.8333 13.0889 24.0156 13.2712 24.0156 13.6357C24.0156 13.818 23.9473 13.9548 23.8105 14.0459L21.623 15.6865C21.5319 15.7777 21.418 15.8232 21.2812 15.8232C21.099 15.8232 20.9622 15.7549 20.8711 15.6182ZM26.2031 16.7803C26.2031 16.8258 26.2031 16.8714 26.2031 16.917C26.2031 17.236 26.0664 17.4183 25.793 17.4639L23.0586 18.0107H22.9219C22.9219 18.0107 22.8991 18.0107 22.8535 18.0107C22.4889 18.0107 22.3066 17.8285 22.3066 17.4639C22.3066 17.1449 22.4661 16.9626 22.7852 16.917L25.5195 16.3701C25.5651 16.3701 25.6107 16.3701 25.6562 16.3701C25.9753 16.3701 26.1576 16.5068 26.2031 16.7803ZM1.04688 16.917C0.682292 16.917 0.5 16.7347 0.5 16.3701V7.62012C0.5 7.25553 0.682292 7.07324 1.04688 7.07324H7.60938C7.97396 7.07324 8.15625 7.25553 8.15625 7.62012V16.3701C8.15625 16.7347 7.97396 16.917 7.60938 16.917H1.04688ZM1.59375 8.16699V15.8232H7.0625V8.16699H1.59375ZM5.42188 9.26074C5.78646 9.26074 5.96875 9.44303 5.96875 9.80762C5.96875 10.1722 5.78646 10.3545 5.42188 10.3545H4.32812C3.96354 10.3545 3.78125 10.1722 3.78125 9.80762C3.78125 9.44303 3.96354 9.26074 4.32812 9.26074H5.42188ZM5.42188 11.4482C5.78646 11.4482 5.96875 11.6305 5.96875 11.9951C5.96875 12.3597 5.78646 12.542 5.42188 12.542H3.23438C2.86979 12.542 2.6875 12.3597 2.6875 11.9951C2.6875 11.6305 2.86979 11.4482 3.23438 11.4482H5.42188ZM5.42188 13.6357C5.78646 13.6357 5.96875 13.818 5.96875 14.1826C5.96875 14.5472 5.78646 14.7295 5.42188 14.7295H3.23438C2.86979 14.7295 2.6875 14.5472 2.6875 14.1826C2.6875 13.818 2.86979 13.6357 3.23438 13.6357H5.42188ZM19.1621 16.7803L21.8965 21.4971C21.9421 21.5882 21.9648 21.6794 21.9648 21.7705C21.9648 21.8161 21.9421 21.8617 21.8965 21.9072C21.8509 22.0895 21.7598 22.2035 21.623 22.249L13.4199 25.3252L14.377 27.1025C14.5137 27.3304 14.582 27.6038 14.582 27.9229C14.582 28.5153 14.3086 28.971 13.7617 29.29C13.5339 29.4723 13.2604 29.5635 12.9414 29.5635C12.349 29.5635 11.8932 29.29 11.5742 28.7432L10.4805 26.8291L10.002 27.1025C9.63737 27.2848 9.27279 27.376 8.9082 27.376H8.83984C8.65755 27.376 8.47526 27.3532 8.29297 27.3076C7.92839 27.2165 7.60938 27.0342 7.33594 26.7607L6.78906 27.0342C6.5612 27.1709 6.28776 27.2393 5.96875 27.2393C5.83203 27.2393 5.69531 27.2393 5.55859 27.2393C5.33073 27.1481 5.12565 27.0228 4.94336 26.8633C4.76107 26.7038 4.61296 26.5101 4.49902 26.2822C4.38509 26.0544 4.32812 25.8265 4.32812 25.5986C4.32812 25.0062 4.60156 24.5505 5.14844 24.2314L5.69531 23.8896C5.64974 23.7074 5.62695 23.5023 5.62695 23.2744C5.62695 22.4541 5.99154 21.8389 6.7207 21.4287L9.04492 20.0615L16.7012 13.7725C16.7923 13.6813 16.9062 13.6357 17.043 13.6357C17.0885 13.6357 17.1341 13.6357 17.1797 13.6357C17.3164 13.6813 17.4303 13.7725 17.5215 13.9092L18.0684 14.8662C18.1139 14.9574 18.1367 15.0485 18.1367 15.1396C18.1367 15.5042 17.9544 15.6865 17.5898 15.6865C17.4076 15.6865 17.248 15.5954 17.1113 15.4131L16.9062 15.0029L10.0703 20.6768L11.4375 23.1377C11.4831 23.1833 11.5059 23.2744 11.5059 23.4111C11.5059 23.7757 11.3236 23.958 10.959 23.958C10.7767 23.958 10.6172 23.8669 10.4805 23.6846L9.11328 21.292L7.26758 22.3857C6.90299 22.6136 6.7207 22.9326 6.7207 23.3428C6.7207 23.5251 6.76628 23.6846 6.85742 23.8213L7.95117 25.7354C8.08789 26.0088 8.29297 26.1683 8.56641 26.2139C8.65755 26.2594 8.7487 26.2822 8.83984 26.2822C9.06771 26.2822 9.25 26.2367 9.38672 26.1455L10.3438 25.5986L11.7793 24.7783H11.8477L20.5977 21.4971L18.2051 17.3271C18.1595 17.236 18.1367 17.1449 18.1367 17.0537C18.1367 16.6891 18.319 16.5068 18.6836 16.5068C18.9115 16.5068 19.071 16.598 19.1621 16.7803ZM6.24219 26.0771L6.7207 25.8037L6.17383 24.8467L5.69531 25.1201C5.55859 25.2113 5.46745 25.3252 5.42188 25.4619C5.42188 25.5075 5.42188 25.5531 5.42188 25.5986C5.42188 25.7354 5.44466 25.8265 5.49023 25.8721C5.58138 26.0088 5.69531 26.0999 5.83203 26.1455C5.8776 26.1455 5.92318 26.1455 5.96875 26.1455C6.0599 26.1455 6.15104 26.1227 6.24219 26.0771ZM13.4199 27.6494L12.3262 25.7354L11.3691 26.2822L12.4629 28.1963C12.5996 28.3786 12.7591 28.4697 12.9414 28.4697C13.0326 28.4697 13.1237 28.4469 13.2148 28.4014C13.3516 28.3102 13.4427 28.1963 13.4883 28.0596C13.4883 28.014 13.4883 27.9684 13.4883 27.9229C13.4883 27.8317 13.4655 27.7406 13.4199 27.6494Z" fill="white"/>
</g>
<defs>
<clipPath id="clip0_123_2757">
<rect width="35" height="36.4" fill="white" transform="matrix(1 0 0 -1 0.5 36.8604)"/>
</clipPath>
</defs>
</svg>
