<svg width="53" height="50" viewBox="0 0 53 50" fill="none" xmlns="http://www.w3.org/2000/svg">
<rect x="0.0585938" width="52" height="50" rx="25" fill="url(#paint0_linear_234_18)"/>
<path d="M39.7617 21.6699L40.2773 21.1543C40.5117 20.9434 40.8633 20.9434 41.0742 21.1543L45.6445 25.7012C45.8555 25.9355 45.8555 26.2871 45.6445 26.498L41.0742 31.0684C40.8633 31.2793 40.5117 31.2793 40.2773 31.0684L39.7617 30.5527C39.5508 30.3184 39.5508 29.9668 39.7617 29.7324L42.5977 27.0371H35.8711C35.543 27.0371 35.3086 26.8027 35.3086 26.4746V25.7246C35.3086 25.4199 35.543 25.1621 35.8711 25.1621H42.5977L39.7617 22.4902C39.5508 22.2559 39.5273 21.9043 39.7617 21.6699Z" fill="#4154F1"/>
<defs>
<linearGradient id="paint0_linear_234_18" x1="52.0586" y1="50" x2="-9.92825" y2="27.4386" gradientUnits="userSpaceOnUse">
<stop stop-opacity="0"/>
<stop offset="1" stop-color="#EDF5FF"/>
</linearGradient>
</defs>
</svg>
