<svg width="189" height="40" viewBox="0 0 189 40" fill="none" xmlns="http://www.w3.org/2000/svg">
<g clip-path="url(#clip0_123_2702)">
<mask id="mask0_123_2702" style="mask-type:alpha" maskUnits="userSpaceOnUse" x="0" y="0" width="189" height="40">
<g clip-path="url(#clip1_123_2702)">
<path d="M0 16L15.12 0H189V24L173.88 40H0V16Z" fill="black"/>
</g>
</mask>
<g mask="url(#mask0_123_2702)">
<rect width="189" height="40" rx="2.5" fill="url(#paint0_linear_123_2702)"/>
<path d="M54.902 19.9762C54.902 19.1442 55.082 18.4042 55.442 17.7562C55.802 17.1002 56.302 16.5922 56.942 16.2322C57.59 15.8642 58.322 15.6802 59.138 15.6802C60.138 15.6802 60.994 15.9442 61.706 16.4722C62.418 17.0002 62.894 17.7202 63.134 18.6322H60.878C60.71 18.2802 60.47 18.0122 60.158 17.8282C59.854 17.6442 59.506 17.5522 59.114 17.5522C58.482 17.5522 57.97 17.7722 57.578 18.2122C57.186 18.6522 56.99 19.2402 56.99 19.9762C56.99 20.7122 57.186 21.3002 57.578 21.7402C57.97 22.1802 58.482 22.4002 59.114 22.4002C59.506 22.4002 59.854 22.3082 60.158 22.1242C60.47 21.9402 60.71 21.6722 60.878 21.3202H63.134C62.894 22.2322 62.418 22.9522 61.706 23.4802C60.994 24.0002 60.138 24.2602 59.138 24.2602C58.322 24.2602 57.59 24.0802 56.942 23.7202C56.302 23.3522 55.802 22.8442 55.442 22.1962C55.082 21.5482 54.902 20.8082 54.902 19.9762ZM68.6147 24.2842C67.8227 24.2842 67.0947 24.1002 66.4307 23.7322C65.7747 23.3642 65.2507 22.8522 64.8587 22.1962C64.4747 21.5322 64.2827 20.7882 64.2827 19.9642C64.2827 19.1402 64.4747 18.4002 64.8587 17.7442C65.2507 17.0882 65.7747 16.5762 66.4307 16.2082C67.0947 15.8402 67.8227 15.6562 68.6147 15.6562C69.4067 15.6562 70.1307 15.8402 70.7867 16.2082C71.4507 16.5762 71.9707 17.0882 72.3467 17.7442C72.7307 18.4002 72.9227 19.1402 72.9227 19.9642C72.9227 20.7882 72.7307 21.5322 72.3467 22.1962C71.9627 22.8522 71.4427 23.3642 70.7867 23.7322C70.1307 24.1002 69.4067 24.2842 68.6147 24.2842ZM68.6147 22.4122C69.2867 22.4122 69.8227 22.1882 70.2227 21.7402C70.6307 21.2922 70.8347 20.7002 70.8347 19.9642C70.8347 19.2202 70.6307 18.6282 70.2227 18.1882C69.8227 17.7402 69.2867 17.5162 68.6147 17.5162C67.9347 17.5162 67.3907 17.7362 66.9827 18.1762C66.5827 18.6162 66.3827 19.2122 66.3827 19.9642C66.3827 20.7082 66.5827 21.3042 66.9827 21.7522C67.3907 22.1922 67.9347 22.4122 68.6147 22.4122ZM81.8403 24.2002H79.7883L76.3563 19.0042V24.2002H74.3043V15.7762H76.3563L79.7883 20.9962V15.7762H81.8403V24.2002ZM89.6277 15.7762V17.4202H87.3957V24.2002H85.3437V17.4202H83.1117V15.7762H89.6277ZM96.1415 22.7122H92.9975L92.4935 24.2002H90.3455L93.3935 15.7762H95.7695L98.8175 24.2002H96.6455L96.1415 22.7122ZM95.6135 21.1282L94.5695 18.0442L93.5375 21.1282H95.6135ZM99.6372 19.9762C99.6372 19.1442 99.8172 18.4042 100.177 17.7562C100.537 17.1002 101.037 16.5922 101.677 16.2322C102.325 15.8642 103.057 15.6802 103.873 15.6802C104.873 15.6802 105.729 15.9442 106.441 16.4722C107.153 17.0002 107.629 17.7202 107.869 18.6322H105.613C105.445 18.2802 105.205 18.0122 104.893 17.8282C104.589 17.6442 104.241 17.5522 103.849 17.5522C103.217 17.5522 102.705 17.7722 102.313 18.2122C101.921 18.6522 101.725 19.2402 101.725 19.9762C101.725 20.7122 101.921 21.3002 102.313 21.7402C102.705 22.1802 103.217 22.4002 103.849 22.4002C104.241 22.4002 104.589 22.3082 104.893 22.1242C105.205 21.9402 105.445 21.6722 105.613 21.3202H107.869C107.629 22.2322 107.153 22.9522 106.441 23.4802C105.729 24.0002 104.873 24.2602 103.873 24.2602C103.057 24.2602 102.325 24.0802 101.677 23.7202C101.037 23.3522 100.537 22.8442 100.177 22.1962C99.8172 21.5482 99.6372 20.8082 99.6372 19.9762ZM115.426 15.7762V17.4202H113.194V24.2002H111.142V17.4202H108.91V15.7762H115.426ZM121.495 15.7762V20.8162C121.495 21.3202 121.619 21.7082 121.867 21.9802C122.115 22.2522 122.479 22.3882 122.959 22.3882C123.439 22.3882 123.807 22.2522 124.063 21.9802C124.319 21.7082 124.447 21.3202 124.447 20.8162V15.7762H126.499V20.8042C126.499 21.5562 126.339 22.1922 126.019 22.7122C125.699 23.2322 125.267 23.6242 124.723 23.8882C124.187 24.1522 123.587 24.2842 122.923 24.2842C122.259 24.2842 121.663 24.1562 121.135 23.9002C120.615 23.6362 120.203 23.2442 119.899 22.7242C119.595 22.1962 119.443 21.5562 119.443 20.8042V15.7762H121.495ZM131.228 24.2842C130.612 24.2842 130.06 24.1842 129.572 23.9842C129.084 23.7842 128.692 23.4882 128.396 23.0962C128.108 22.7042 127.956 22.2322 127.94 21.6802H130.124C130.156 21.9922 130.264 22.2322 130.448 22.4002C130.632 22.5602 130.872 22.6402 131.168 22.6402C131.472 22.6402 131.712 22.5722 131.888 22.4362C132.064 22.2922 132.152 22.0962 132.152 21.8482C132.152 21.6402 132.08 21.4682 131.936 21.3322C131.8 21.1962 131.628 21.0842 131.42 20.9962C131.22 20.9082 130.932 20.8082 130.556 20.6962C130.012 20.5282 129.568 20.3602 129.224 20.1922C128.88 20.0242 128.584 19.7762 128.336 19.4482C128.088 19.1202 127.964 18.6922 127.964 18.1642C127.964 17.3802 128.248 16.7682 128.816 16.3282C129.384 15.8802 130.124 15.6562 131.036 15.6562C131.964 15.6562 132.712 15.8802 133.28 16.3282C133.848 16.7682 134.152 17.3842 134.192 18.1762H131.972C131.956 17.9042 131.856 17.6922 131.672 17.5402C131.488 17.3802 131.252 17.3002 130.964 17.3002C130.716 17.3002 130.516 17.3682 130.364 17.5042C130.212 17.6322 130.136 17.8202 130.136 18.0682C130.136 18.3402 130.264 18.5522 130.52 18.7042C130.776 18.8562 131.176 19.0202 131.72 19.1962C132.264 19.3802 132.704 19.5562 133.04 19.7242C133.384 19.8922 133.68 20.1362 133.928 20.4562C134.176 20.7762 134.3 21.1882 134.3 21.6922C134.3 22.1722 134.176 22.6082 133.928 23.0002C133.688 23.3922 133.336 23.7042 132.872 23.9362C132.408 24.1682 131.86 24.2842 131.228 24.2842Z" fill="white"/>
<rect x="0.5" y="0.5" width="188" height="39" rx="2" stroke="white" stroke-opacity="0.2"/>
</g>
<rect opacity="0.2" x="-36.0781" y="-42.46" width="50" height="242" transform="rotate(35 -36.0781 -42.46)" fill="white"/>
</g>
<defs>
<linearGradient id="paint0_linear_123_2702" x1="0" y1="0" x2="190.375" y2="8.24099" gradientUnits="userSpaceOnUse">
<stop stop-color="#F4911C"/>
<stop offset="1" stop-color="#FFB457"/>
</linearGradient>
<clipPath id="clip0_123_2702">
<rect width="189" height="40" fill="white"/>
</clipPath>
<clipPath id="clip1_123_2702">
<rect width="189" height="40" fill="white"/>
</clipPath>
</defs>
</svg>
