<svg width="254" height="38" viewBox="0 0 254 38" fill="none" xmlns="http://www.w3.org/2000/svg">
<g id="logo-1.svg" clip-path="url(#clip0_123_2550)">
<path id="Vector" d="M58.4652 13V14.245H55.2982V24.7213H53.7835V14.254H50.6016V13H58.4652Z" fill="#004290"/>
<path id="Vector_2" d="M70.5313 13V24.7213H69.0136V19.4151H63.0958V24.7304H61.5781V13H63.0958V18.1369H69.0077V13H70.5313Z" fill="#004290"/>
<path id="Vector_3" d="M75.874 14.254V18.1823H80.1126V19.4454H75.874V23.4794H80.6035V24.7424H74.3594V13H80.6035V14.2631L75.874 14.254Z" fill="#004290"/>
<path id="Vector_4" d="M91.4964 23.9778C90.6187 23.4858 89.889 22.7634 89.3845 21.8872C88.8712 20.9652 88.6016 19.9254 88.6016 18.8678C88.6016 17.8101 88.8712 16.7703 89.3845 15.8483C89.8889 14.9713 90.6186 14.248 91.4964 13.7548C92.395 13.2595 93.4024 13 94.4261 13C95.4499 13 96.4573 13.2595 97.3559 13.7548C98.2301 14.2477 98.9551 14.9714 99.4531 15.8483C99.9589 16.7728 100.224 17.8117 100.224 18.8678C100.224 19.9239 99.9589 20.9627 99.4531 21.8872C98.9533 22.765 98.225 23.488 97.3471 23.9778C96.4512 24.4715 95.4469 24.7302 94.4261 24.7302C93.4054 24.7302 92.4011 24.4715 91.5052 23.9778H91.4964ZM96.2255 22.2086C96.7526 21.8915 97.1768 21.4263 97.4464 20.8699C97.7351 20.2385 97.8846 19.5514 97.8846 18.856C97.8846 18.1606 97.7351 17.4734 97.4464 16.842C97.1763 16.2906 96.7517 15.8313 96.2255 15.521C95.6767 15.2068 95.054 15.0478 94.4232 15.061C93.7888 15.0485 93.1625 15.2073 92.6093 15.521C92.0807 15.8302 91.6541 16.2897 91.3825 16.842C91.0917 17.476 90.9413 18.1664 90.9418 18.8651C90.9423 19.5638 91.0937 20.254 91.3854 20.8876C91.6563 21.445 92.0828 21.9103 92.6122 22.2263C93.1636 22.5457 93.7906 22.7078 94.4261 22.6951C95.0582 22.7039 95.6805 22.5377 96.2255 22.2145V22.2086Z" fill="#004290"/>
<path id="Vector_5" d="M103.338 15.8486C103.823 14.9752 104.538 14.2539 105.403 13.7639C106.295 13.2617 107.302 13.0044 108.324 13.0179C109.509 12.9924 110.673 13.3363 111.657 14.0027C112.61 14.6553 113.315 15.6147 113.658 16.7243H111.029C110.797 16.2098 110.414 15.7803 109.93 15.4947C109.432 15.2141 108.868 15.0727 108.298 15.0849C107.682 15.0756 107.075 15.2378 106.545 15.5537C106.026 15.8681 105.609 16.3267 105.342 16.8747C105.059 17.502 104.912 18.1832 104.912 18.8724C104.912 19.5616 105.059 20.2429 105.342 20.8701C105.608 21.4203 106.026 21.8811 106.545 22.197C107.075 22.5129 107.682 22.6751 108.298 22.6659C108.869 22.6781 109.434 22.5334 109.93 22.2471C110.414 21.9581 110.797 21.5256 111.029 21.0087H113.658C113.32 22.1218 112.618 23.0858 111.666 23.7421C110.734 24.3387 109.662 24.6742 108.559 24.7141C107.456 24.754 106.363 24.4969 105.391 23.9692C104.529 23.4849 103.814 22.7709 103.326 21.9051C102.83 20.9765 102.57 19.9379 102.57 18.8827C102.57 17.8276 102.83 16.7889 103.326 15.8604L103.338 15.8486Z" fill="#004290"/>
<path id="Vector_6" d="M124.56 13.165V15.0197H121.536V24.6176H119.261V15.0197H116.238V13.165H124.56Z" fill="#004290"/>
<path id="Vector_7" d="M134.395 22.4358H129.876L129.128 24.6178H126.73L130.819 13.1475H133.469L137.558 24.6178H135.142L134.395 22.4358ZM133.778 20.5929L132.137 15.8013L130.495 20.5929H133.778Z" fill="#004290"/>
<path id="Vector_8" d="M142.569 22.7983H146.299V24.6176H140.293V13.165H142.569V22.7983Z" fill="#004290"/>
<path id="Vector_9" d="M157.997 13.165L154.159 20.631V24.6176H151.883V20.631L148.031 13.165H150.601L153.037 18.3989L155.462 13.165H157.997Z" fill="#004290"/>
<path id="Vector_10" d="M162.313 24.3225C161.713 24.0764 161.193 23.6683 160.808 23.1431C160.434 22.6121 160.236 21.9753 160.242 21.3238H162.678C162.691 21.7469 162.87 22.1475 163.174 22.4383C163.517 22.7277 163.956 22.8743 164.401 22.8482C164.851 22.8755 165.296 22.7384 165.654 22.4619C165.802 22.3405 165.92 22.1864 165.999 22.0115C166.078 21.8366 166.116 21.6456 166.11 21.4535C166.12 21.1442 166.008 20.8434 165.8 20.6161C165.582 20.3911 165.319 20.2153 165.029 20.1001C164.611 19.938 164.185 19.7982 163.753 19.6814C163.139 19.5095 162.539 19.2927 161.956 19.0327C161.488 18.8147 161.08 18.4823 160.77 18.0655C160.417 17.5614 160.242 16.9516 160.274 16.3346C160.26 15.7071 160.435 15.0901 160.776 14.5654C161.128 14.0492 161.62 13.6467 162.193 13.4066C162.851 13.1298 163.56 12.9933 164.273 13.0056C165.292 12.9595 166.297 13.2629 167.124 13.8666C167.487 14.154 167.785 14.5183 167.994 14.934C168.203 15.3497 168.32 15.8066 168.336 16.2727H165.833C165.825 16.0834 165.777 15.898 165.691 15.7294C165.605 15.5608 165.484 15.4132 165.336 15.2967C164.986 15.0238 164.551 14.8867 164.109 14.9104C163.725 14.8907 163.347 15.0134 163.046 15.2554C162.909 15.381 162.802 15.536 162.733 15.7091C162.663 15.8822 162.634 16.0688 162.646 16.255C162.641 16.3956 162.664 16.5358 162.715 16.667C162.765 16.7982 162.841 16.9179 162.938 17.0187C163.153 17.2305 163.407 17.3978 163.686 17.5112C163.978 17.635 164.404 17.7824 164.947 17.9446C165.563 18.1206 166.165 18.3403 166.75 18.6022C167.224 18.8264 167.638 19.1645 167.953 19.587C168.309 20.0871 168.487 20.6939 168.458 21.309C168.461 21.9114 168.297 22.5026 167.985 23.0163C167.653 23.5592 167.173 23.995 166.604 24.2724C165.93 24.5976 165.189 24.7572 164.442 24.7383C163.712 24.7471 162.987 24.6057 162.313 24.3225Z" fill="#004290"/>
<path id="Vector_11" d="M173.927 13.165V24.6176H171.652V13.165H173.927Z" fill="#004290"/>
<path id="Vector_12" d="M179.169 24.3225C178.57 24.0764 178.049 23.6683 177.665 23.143C177.291 22.6121 177.092 21.9753 177.098 21.3237H179.534C179.548 21.7468 179.726 22.1475 180.031 22.4383C180.373 22.7277 180.812 22.8743 181.258 22.8482C181.708 22.8754 182.153 22.7383 182.511 22.4619C182.658 22.3405 182.776 22.1863 182.855 22.0114C182.934 21.8365 182.972 21.6456 182.966 21.4534C182.976 21.1441 182.865 20.8433 182.657 20.616C182.439 20.3911 182.176 20.2152 181.886 20.1C181.468 19.9379 181.042 19.7982 180.609 19.6813C179.996 19.5094 179.395 19.2926 178.813 19.0326C178.344 18.8146 177.937 18.4822 177.627 18.0654C177.273 17.5613 177.098 16.9515 177.13 16.3346C177.116 15.7071 177.291 15.0901 177.633 14.5654C177.984 14.0491 178.476 13.6466 179.049 13.4066C179.708 13.1297 180.416 12.9932 181.129 13.0056C182.148 12.9594 183.153 13.2629 183.98 13.8666C184.344 14.1539 184.641 14.5183 184.85 14.934C185.06 15.3496 185.177 15.8066 185.192 16.2727H182.689C182.681 16.0833 182.633 15.8979 182.547 15.7293C182.462 15.5608 182.34 15.4131 182.192 15.2967C181.842 15.0237 181.407 14.8867 180.966 14.9104C180.581 14.8906 180.203 15.0133 179.902 15.2554C179.765 15.3809 179.658 15.536 179.589 15.709C179.52 15.8821 179.49 16.0687 179.502 16.255C179.497 16.3956 179.521 16.5357 179.571 16.6669C179.621 16.7982 179.697 16.9178 179.794 17.0187C180.009 17.2304 180.263 17.3977 180.542 17.5111C180.834 17.6349 181.261 17.7824 181.804 17.9445C182.419 18.1205 183.022 18.3402 183.606 18.6021C184.081 18.8264 184.494 19.1645 184.81 19.5869C185.166 20.087 185.344 20.6938 185.315 21.309C185.321 21.9079 185.162 22.4968 184.856 23.0103C184.524 23.5533 184.044 23.9891 183.475 24.2665C182.801 24.5916 182.06 24.7512 181.313 24.7323C180.578 24.7451 179.849 24.6056 179.169 24.3225Z" fill="#004290"/>
<path id="Vector_13" d="M202.757 16.4721C202.462 15.8275 201.985 15.2857 201.385 14.9156C200.753 14.5395 200.031 14.3489 199.298 14.3652C198.547 14.3539 197.806 14.5439 197.152 14.9156C196.518 15.287 196.001 15.8331 195.663 16.4899C195.289 17.221 195.101 18.0344 195.115 18.8572C195.098 19.6801 195.287 20.4941 195.663 21.2245C196.005 21.8819 196.525 22.4271 197.164 22.7958C197.817 23.1699 198.558 23.3609 199.309 23.3492C200.318 23.3869 201.301 23.0259 202.05 22.3431C202.79 21.6274 203.237 20.6584 203.305 19.6266H198.758V18.4074H204.876V19.5615C204.796 20.4849 204.494 21.3748 203.997 22.1537C203.505 22.9324 202.827 23.5727 202.024 24.015C201.19 24.4756 200.251 24.711 199.301 24.6985C198.29 24.7108 197.293 24.4525 196.413 23.9499C195.556 23.4593 194.847 22.7435 194.361 21.8785C193.863 20.9519 193.602 19.9144 193.602 18.8601C193.602 17.8059 193.863 16.7683 194.361 15.8418C194.843 14.9689 195.553 14.2462 196.413 13.7526C197.293 13.249 198.289 12.9897 199.301 13.001C200.433 12.9797 201.547 13.2946 202.505 13.9065C203.437 14.5143 204.149 15.4101 204.536 16.4603L202.757 16.4721Z" fill="#004290"/>
<path id="Vector_14" d="M214.044 24.6243L211.335 19.9311H209.541V24.6243H208.055V13.1458H211.725C212.475 13.1227 213.221 13.2746 213.903 13.5896C214.455 13.8486 214.918 14.2666 215.234 14.791C215.518 15.256 215.684 15.7844 215.718 16.3295C215.752 16.8746 215.652 17.4197 215.428 17.9168C215.204 18.4138 214.862 18.8476 214.432 19.1798C214.003 19.512 213.499 19.7324 212.965 19.8216L215.82 24.6302L214.044 24.6243ZM209.541 18.7267H211.725C212.531 18.7267 213.135 18.5285 213.537 18.1349C213.741 17.9237 213.9 17.6723 214.004 17.3964C214.108 17.1204 214.154 16.8259 214.141 16.531C214.158 16.2409 214.115 15.9502 214.014 15.6779C213.913 15.4057 213.756 15.158 213.554 14.9508C213.156 14.575 212.552 14.3886 211.734 14.3886H209.55L209.541 18.7267Z" fill="#004290"/>
<path id="Vector_15" d="M221.459 23.991C220.599 23.4955 219.889 22.772 219.407 21.8989C218.909 20.9707 218.648 19.9317 218.648 18.8761C218.648 17.8204 218.909 16.7814 219.407 15.8533C219.889 14.9804 220.598 14.2577 221.459 13.7641C222.346 13.2712 223.342 13.0127 224.354 13.0127C225.366 13.0127 226.362 13.2712 227.249 13.7641C228.109 14.2504 228.819 14.9673 229.3 15.8355C229.793 16.7681 230.051 17.8088 230.051 18.8657C230.051 19.9226 229.793 20.9633 229.3 21.8959C228.817 22.7628 228.107 23.4793 227.249 23.9673C226.361 24.4584 225.366 24.7158 224.354 24.7158C223.342 24.7158 222.346 24.4584 221.459 23.9673V23.991ZM226.492 22.8783C227.132 22.5001 227.653 21.9459 227.993 21.2804C228.352 20.5291 228.538 19.7057 228.538 18.8716C228.538 18.0375 228.352 17.2142 227.993 16.4629C227.651 15.8027 227.134 15.2522 226.498 14.8738C225.839 14.507 225.098 14.3147 224.345 14.3147C223.592 14.3147 222.851 14.507 222.192 14.8738C221.557 15.2515 221.039 15.8022 220.7 16.4629C220.339 17.2136 220.152 18.0372 220.152 18.8716C220.152 19.7061 220.339 20.5296 220.7 21.2804C221.039 21.9465 221.56 22.501 222.201 22.8783C222.857 23.2452 223.596 23.4376 224.346 23.4376C225.097 23.4376 225.835 23.2452 226.492 22.8783Z" fill="#004290"/>
<path id="Vector_16" d="M234.694 13.1465V20.4082C234.694 21.4282 234.942 22.1857 235.436 22.6809C236.015 23.1587 236.74 23.4198 237.488 23.4198C238.236 23.4198 238.961 23.1587 239.54 22.6809C240.032 22.1867 240.282 21.4292 240.282 20.4082V13.1465H241.765V20.3905C241.791 21.2321 241.595 22.0656 241.196 22.8052C240.839 23.4358 240.301 23.9432 239.654 24.2611C238.971 24.5769 238.228 24.7404 237.476 24.7404C236.725 24.7404 235.982 24.5769 235.298 24.2611C234.652 23.9451 234.117 23.437 233.765 22.8052C233.368 22.0651 233.174 21.2316 233.202 20.3905V13.1465H234.694Z" fill="#004290"/>
<path id="Vector_17" d="M252.112 18.8843C251.463 19.5175 250.476 19.8332 249.151 19.8312H246.961V24.625H245.496V13.1465H249.166C250.448 13.1465 251.425 13.4592 252.097 14.0845C252.412 14.3974 252.662 14.7697 252.834 15.1804C253.006 15.591 253.096 16.0319 253.099 16.4777C253.102 16.9235 253.018 17.3655 252.851 17.7784C252.685 18.1914 252.44 18.5672 252.129 18.8843H252.112ZM250.977 18.0528C251.179 17.8525 251.336 17.6106 251.438 17.3435C251.539 17.0764 251.582 16.7905 251.563 16.5051C251.563 15.0906 250.759 14.3824 249.151 14.3804H246.961V18.5972H249.148C249.978 18.5972 250.584 18.4167 250.977 18.0528Z" fill="#004290"/>
<path id="Vector_18" d="M28.8715 23.1653L28.5256 23.5174L28.1766 23.8679L27.8353 24.2262L27.4894 24.5782L27.1435 24.9288L26.7992 25.2808L26.4533 25.6313L26.1074 25.9834L25.7615 26.3355L25.4171 26.686L25.0712 27.0381L24.7253 27.3886L24.3809 27.7406L24.035 28.0865L23.6891 28.4371H23.1965H22.7039H22.2113H21.7187H21.2261H20.7335H20.2409H19.7483H19.2557H18.7631H18.2705H17.7779H17.2837H16.7911H16.2985H15.8059L15.4554 28.0912L15.1033 27.7453L14.7512 27.4689L14.4007 27.123L14.0486 26.7771L13.6981 26.4328L13.3522 26.09L13.0001 25.7441L12.6496 25.3997L12.2975 25.0538L11.9454 24.7079L11.5949 24.3636L11.2428 24.0177L10.8814 23.6718L10.5293 23.3275L10.1772 22.9816V15.1481L10.5216 14.7976L10.8675 14.4455L11.2134 14.0935L11.5578 13.7429L11.9037 13.3909L12.2496 13.0388L12.594 12.6883L12.9399 12.3362L13.2858 11.9857L13.6317 11.6336L13.976 11.2816L14.3219 10.931L14.6678 10.579L15.0122 10.2284L15.3581 9.87638L15.704 9.52431H16.1889H16.6753H17.1617H17.6482H18.1346H18.621H19.1075H19.5939H20.0788H20.5652H21.0516H21.538H22.0245H22.5109H22.9973H23.4822L23.8343 9.8702L24.1864 10.2161L24.5369 10.5604L24.889 10.9063L25.2411 11.2522L25.5916 11.5966L25.9437 11.9425L26.2942 12.2883L26.6463 12.6327L26.9984 12.9786L27.3489 13.3245L27.701 13.6688L28.0531 14.0147L28.4036 14.3606L28.7557 14.7049L29.1062 15.0508L29.114 15.5403L29.1217 16.0298L29.1294 16.5193V17.0088L29.1371 17.4983L29.1448 17.9863V18.4757V18.9652L29.1526 19.4547L29.1603 19.9442L29.168 20.4337L29.1757 20.9232V21.4127L29.1834 21.9022V22.3917L29.1912 22.8812L28.8715 23.1653ZM18.7137 0.356698L17.8736 0.711853L17.0351 1.06392L16.1951 1.42062L15.3596 1.78195L14.5165 2.14482L13.6765 2.50152L12.8379 2.85822L11.9979 3.21492L11.1578 3.57007L10.3193 3.92677L9.47924 4.28347L8.64073 4.64017L7.80068 4.99532L6.96063 5.35202L6.12212 5.69637L5.77622 6.5333L5.43186 7.37177L5.0875 8.21024L4.7416 9.04717L4.39569 9.89028L4.04979 10.7272L3.70697 11.5641L3.36261 12.4011L3.01671 13.2395L2.67235 14.0765L2.32645 14.9149L1.98209 15.7519L1.63773 16.5903L1.29183 17.4319L0.947466 18.2704L0.601562 19.1073L0.958275 19.9473L1.31499 20.7873L1.6717 21.6258L2.02687 22.4658L2.38821 23.2997L2.74493 24.1381L3.10164 24.9782L3.45681 25.8166L3.81352 26.6567L4.17024 27.4967L4.52695 28.3351L4.88212 29.1752L5.23883 30.0136L5.59555 30.8537L5.95226 31.6937L6.30743 32.5321L7.15366 32.8734L7.99988 33.2162L8.84457 33.5575L9.6908 33.8987L10.5355 34.24L11.3818 34.5812L12.2264 34.9225L13.0727 35.2637L13.9174 35.605L14.7636 35.9478L15.6083 36.2891L16.4545 36.6303L17.2992 36.9716L18.1454 37.3128L18.9916 37.6541L19.8363 37.9953L20.6764 37.6386L21.5149 37.2835L22.3549 36.9268L23.195 36.5701L24.0335 36.2134L24.8735 35.8582L25.7059 35.4985L26.5459 35.1418L27.386 34.7851L28.2245 34.4299L29.0645 34.0732L29.9046 33.7165L30.7431 33.3598L31.5831 33.0047L32.4217 32.648L33.2617 32.2913L33.5953 31.4497L33.9288 30.6081L34.2624 29.765L34.5959 28.9235L34.931 28.0819L35.2646 27.2403L35.5981 26.3972L35.9317 25.5557L36.2652 24.7141L36.5988 23.871L36.9323 23.0294L37.2659 22.1879L37.5994 21.3463L37.9345 20.5032L38.2681 19.6617L38.6016 18.8201L38.2449 17.9801L37.8882 17.1416L37.5315 16.3016L37.1763 15.4616L36.8242 14.6293L36.4675 13.7893L36.1077 12.9539L35.7525 12.1139L35.3958 11.2738L35.0391 10.4354L34.6824 9.59535L34.3272 8.75687L33.9705 7.91685L33.6138 7.07684L33.2571 6.23836L32.9019 5.39835L32.0665 5.06172L31.2326 4.72355L30.3987 4.38693L29.5649 4.0503L28.7294 3.71214L27.8956 3.38014L27.0617 3.04197L26.2278 2.70535L25.397 2.36101L24.5632 2.02284L23.7247 1.68158L22.8908 1.34341L22.0554 1.00679L21.2277 0.674794L20.3938 0.336625L19.5599 0L18.7137 0.356698Z" fill="url(#paint0_radial_123_2550)"/>
<path id="Vector_19" opacity="0.7" d="M1.63052 16.6799L1.61045 16.6058L1.30469 17.3501L10.1685 14.5166L1.63052 16.6799Z" fill="#094896"/>
<path id="Vector_20" opacity="0.7" d="M1.97118 15.8433L1.95574 15.7676L1.64844 16.5165L10.838 14.0459L1.97118 15.8433Z" fill="#094896"/>
<path id="Vector_21" opacity="0.7" d="M1.28986 17.5183L1.26669 17.4442L0.960938 18.1854L9.49735 15.0215L1.28986 17.5183Z" fill="#094896"/>
<path id="Vector_22" opacity="0.7" d="M10.1448 15.8154L0.96139 20.031L0.933594 19.9738L1.25479 20.7305L10.1464 15.9714L10.1448 15.8154Z" fill="#094896"/>
<path id="Vector_23" opacity="0.7" d="M10.1448 15.3213L0.601562 19.1925L0.898051 19.8904L10.1448 15.4865V15.3213Z" fill="#094896"/>
<path id="Vector_24" opacity="0.7" d="M10.1467 16.3096L1.32149 20.8695L1.28906 20.8077L1.6118 21.569L10.1467 16.5613V16.3096Z" fill="#094896"/>
<path id="Vector_25" opacity="0.7" d="M0.946106 18.3548L0.919855 18.2823L0.617188 19.0188L8.81542 15.5615L0.946106 18.3548Z" fill="#094896"/>
<path id="Vector_26" opacity="0.7" d="M13.0587 12.1954L13.1158 12.1368L3.67758 11.6519L3.68067 11.5762L3.36719 12.336L13.0587 12.1954Z" fill="#094896"/>
<path id="Vector_27" opacity="0.7" d="M2.30948 15.0047L2.29867 14.9291L1.98828 15.6811L11.4898 13.6104L2.30948 15.0047Z" fill="#094896"/>
<path id="Vector_28" opacity="0.7" d="M29.2101 22.6754L38.5757 18.7703L38.2792 18.0723L29.207 22.5087L29.2101 22.6754Z" fill="#094896"/>
<path id="Vector_29" opacity="0.7" d="M14.8686 10.3571L5.38561 7.45719L5.40723 7.3877L5.09375 8.14897L14.7636 10.4637L14.8686 10.3571Z" fill="#094896"/>
<path id="Vector_30" opacity="0.7" d="M14.1695 11.0674L4.70192 9.13564L4.71582 9.06152L4.40234 9.82433L14.0784 11.16L14.1695 11.0674Z" fill="#094896"/>
<path id="Vector_31" opacity="0.7" d="M14.5179 10.7122L5.04258 8.29564L5.06111 8.22461L4.74609 8.98742L14.4191 10.8126L14.5179 10.7122Z" fill="#094896"/>
<path id="Vector_32" opacity="0.7" d="M12.7644 12.4968L3.33537 12.4906V12.415L3.02344 13.1716L12.7211 12.5401L12.7644 12.4968Z" fill="#094896"/>
<path id="Vector_33" opacity="0.7" d="M12.0559 13.2153L2.75669 14.1557L2.74125 14.0028L12.3833 12.8833L12.4096 12.8555L2.99141 13.3295L2.98832 13.2539L2.64242 14.0908L2.33203 14.8459L12.0482 13.223L12.0559 13.2153Z" fill="#094896"/>
<path id="Vector_34" opacity="0.7" d="M13.4071 11.8424L4.0167 10.814L4.02442 10.7383L3.71094 11.4996L13.3978 11.8517L13.4071 11.8424Z" fill="#094896"/>
<path id="Vector_35" opacity="0.7" d="M13.8195 11.4235L4.36126 9.97353L4.37207 9.89941L4.05859 10.6622L13.6759 11.5686L13.8195 11.4235Z" fill="#094896"/>
<path id="Vector_36" opacity="0.7" d="M10.9831 23.8096L8.04451 33.269L7.97656 33.249L8.74404 33.5593L11.0912 23.9161L10.9831 23.8096Z" fill="#094896"/>
<path id="Vector_37" opacity="0.7" d="M11.6956 24.5068L9.74054 33.9447L9.66797 33.9308L10.437 34.2411L11.7882 24.5979L11.6956 24.5068Z" fill="#094896"/>
<path id="Vector_38" opacity="0.7" d="M11.3389 24.1582L8.89289 33.6068L8.82031 33.5899L9.59087 33.9002L11.4393 24.257L11.3389 24.1582Z" fill="#094896"/>
<path id="Vector_39" opacity="0.7" d="M15.217 10.0014L5.72781 6.61661L5.74943 6.55176L5.4375 7.30993L15.1058 10.1157L15.217 10.0014Z" fill="#094896"/>
<path id="Vector_40" opacity="0.7" d="M10.277 23.1133L6.35156 32.5929L7.05572 32.8755L10.3959 23.2307L10.277 23.1133Z" fill="#094896"/>
<path id="Vector_41" opacity="0.7" d="M5.99136 31.7558L5.92188 31.7234L6.23534 32.4615L9.47974 24.3115L5.99136 31.7558Z" fill="#094896"/>
<path id="Vector_42" opacity="0.7" d="M10.6313 23.4619L7.19848 32.9306L7.13672 32.909L7.89956 33.2178L10.744 23.573L10.6313 23.4619Z" fill="#094896"/>
<path id="Vector_43" opacity="0.7" d="M12.0536 24.8574L10.5882 34.2829L10.5156 34.272L11.2846 34.5824L12.137 24.9392L12.0536 24.8574Z" fill="#094896"/>
<path id="Vector_44" opacity="0.7" d="M13.1836 25.9708L13.1249 25.9121L13.1265 35.2959L13.0508 35.2975L13.8167 35.6063L13.1682 25.9708H13.1836Z" fill="#094896"/>
<path id="Vector_45" opacity="0.7" d="M12.8239 25.6176L12.7652 25.5605L12.2788 34.9597L12.2031 34.9551L12.9706 35.2655L12.8223 25.6176H12.8239Z" fill="#094896"/>
<path id="Vector_46" opacity="0.7" d="M38.2447 19.612L38.2725 19.683L38.5659 18.9434L30.5391 22.4177L38.2447 19.612Z" fill="#094896"/>
<path id="Vector_47" opacity="0.7" d="M12.4095 25.208L11.4351 34.6211L11.3594 34.6134L12.1284 34.9237L12.4805 25.2774L12.4095 25.208Z" fill="#094896"/>
<path id="Vector_48" opacity="0.7" d="M10.153 17.8613L2.40416 23.3847L2.35938 23.3245L2.68366 24.0873L10.153 17.9076V17.8613Z" fill="#094896"/>
<path id="Vector_49" opacity="0.7" d="M10.1533 18.292L2.76271 24.2215L2.71484 24.1628L3.0592 24.9766L10.1533 18.3877V18.292Z" fill="#094896"/>
<path id="Vector_50" opacity="0.7" d="M10.1539 18.8692V18.792L3.14471 25.1091L3.09375 25.0535L3.39487 25.7654L10.1539 18.8692Z" fill="#094896"/>
<path id="Vector_51" opacity="0.7" d="M10.1524 19.291L3.47983 25.8969L3.42578 25.8428L3.74852 26.6026L10.1524 19.3466V19.291Z" fill="#094896"/>
<path id="Vector_52" opacity="0.7" d="M10.1485 16.9033L1.68004 21.7072L1.64453 21.6439L1.96881 22.4082L10.1485 16.9404V16.9033Z" fill="#094896"/>
<path id="Vector_53" opacity="0.7" d="M10.1512 17.2988L2.04406 22.5458L2.00391 22.4841L2.32819 23.2484L10.1527 17.4934L10.1512 17.2988Z" fill="#094896"/>
<path id="Vector_54" opacity="0.7" d="M5.63436 30.9185L5.56641 30.8829L5.88298 31.6257L9.57674 23.4463L5.63436 30.9185Z" fill="#094896"/>
<path id="Vector_55" opacity="0.7" d="M10.1566 19.791L3.84075 26.7335L3.78516 26.6826L4.10635 27.4407L10.1566 19.8219V19.791Z" fill="#094896"/>
<path id="Vector_56" opacity="0.7" d="M4.55786 28.4076L4.49609 28.363L4.81575 29.1165L9.98577 21.0312L4.55786 28.4076Z" fill="#094896"/>
<path id="Vector_57" opacity="0.7" d="M5.27734 30.0811L5.21094 30.0425L5.52905 30.7898L9.69533 22.6074L5.27734 30.0811Z" fill="#094896"/>
<path id="Vector_58" opacity="0.7" d="M13.4844 26.2656L13.9724 35.6339L13.8967 35.6386L14.6595 35.9474L13.5106 26.2918L13.4844 26.2656Z" fill="#094896"/>
<path id="Vector_59" opacity="0.7" d="M10.1553 20.2949L4.19931 27.571L4.14062 27.5231L4.46027 28.2797L10.1553 20.2965V20.2949Z" fill="#094896"/>
<path id="Vector_60" opacity="0.7" d="M22.8053 1.36538L22.8794 1.34994L22.1367 1.04883L24.5827 10.1686L22.8053 1.36538Z" fill="#094896"/>
<path id="Vector_61" opacity="0.7" d="M26.8444 12.7888L27.8142 3.36792L27.8883 3.3741L27.1316 3.06836L26.7734 12.7193L26.8444 12.7888Z" fill="#094896"/>
<path id="Vector_62" opacity="0.7" d="M27.5574 13.4894L29.4846 4.0346L29.5572 4.0485L28.799 3.74121L27.4648 13.3983L27.5574 13.4894Z" fill="#094896"/>
<path id="Vector_63" opacity="0.7" d="M28.2685 14.1874L31.1562 4.70169L31.2241 4.72176L30.4674 4.41602L28.1758 14.0963L28.2685 14.1874Z" fill="#094896"/>
<path id="Vector_64" opacity="0.7" d="M26.4281 12.3793L26.4853 12.4379L26.9779 3.03255L27.0536 3.03719L26.2969 2.73145L26.4281 12.3793Z" fill="#094896"/>
<path id="Vector_65" opacity="0.7" d="M27.9284 13.853L30.3203 4.36884L30.3914 4.38582L29.6332 4.08008L27.8125 13.7403L27.9284 13.853Z" fill="#094896"/>
<path id="Vector_66" opacity="0.7" d="M25.7709 11.7327L25.3092 2.36587L25.3848 2.36279L24.6328 2.05859L25.7431 11.7049L25.7709 11.7327Z" fill="#094896"/>
<path id="Vector_67" opacity="0.7" d="M25.4098 11.3788L24.4756 2.03205L24.5513 2.02433L23.8008 1.72168L25.4006 11.368L25.4098 11.3788Z" fill="#094896"/>
<path id="Vector_68" opacity="0.7" d="M23.6366 1.69823L23.7122 1.68588L22.9648 1.38477L25.0202 10.852L23.6366 1.69823Z" fill="#094896"/>
<path id="Vector_69" opacity="0.7" d="M29.1734 20.2008L36.7787 14.5801L36.8234 14.6388L36.4992 13.876L29.1719 20.0881L29.1734 20.2008Z" fill="#094896"/>
<path id="Vector_70" opacity="0.7" d="M28.6206 14.5355L31.9916 5.03746L32.0549 5.05908L31.3013 4.75488L28.5078 14.4259L28.6206 14.5355Z" fill="#094896"/>
<path id="Vector_71" opacity="0.7" d="M26.1272 12.0841L26.1427 2.69872H26.2184L25.4648 2.39453L26.084 12.0409L26.1272 12.0841Z" fill="#094896"/>
<path id="Vector_72" opacity="0.7" d="M27.2029 13.1396L28.6514 3.70175L28.7255 3.71256L27.9673 3.40527L27.1211 13.0593L27.2029 13.1396Z" fill="#094896"/>
<path id="Vector_73" opacity="0.7" d="M29.1406 18.2036L35.339 11.2287L35.3962 11.2796L35.075 10.5215L29.1406 18.1727V18.2036Z" fill="#094896"/>
<path id="Vector_74" opacity="0.7" d="M29.1445 18.6271L29.1461 18.7059L35.6966 12.066L35.7507 12.1201L35.4279 11.3604L29.1569 18.6364L29.1445 18.6271Z" fill="#094896"/>
<path id="Vector_75" opacity="0.7" d="M29.1618 19.7032L36.4149 13.7413L36.4644 13.7984L36.1401 13.0371L29.1602 19.6075L29.1618 19.7032Z" fill="#094896"/>
<path id="Vector_76" opacity="0.7" d="M29.1523 19.1263L29.1539 19.205L36.055 12.9049L36.1075 12.9589L35.7832 12.1992L29.1539 19.1278L29.1523 19.1263Z" fill="#094896"/>
<path id="Vector_77" opacity="0.7" d="M29.2022 22.1783L38.2158 17.9319L38.2452 17.9906L37.924 17.2324L29.1992 22.0224L29.2022 22.1783Z" fill="#094896"/>
<path id="Vector_78" opacity="0.7" d="M34.6204 9.55545L34.6822 9.60023L34.3625 8.84668L29.2852 16.9735L34.6204 9.55545Z" fill="#094896"/>
<path id="Vector_79" opacity="0.7" d="M33.544 7.04413L33.6119 7.07964L33.2969 6.33691L29.668 14.5642L33.544 7.04413Z" fill="#094896"/>
<path id="Vector_80" opacity="0.7" d="M33.1875 6.20763L33.2569 6.24005L32.9435 5.50195L29.7578 13.6952L33.1875 6.20763Z" fill="#094896"/>
<path id="Vector_81" opacity="0.7" d="M28.9783 14.8838L32.8296 5.37031L32.8327 5.37186L32.1378 5.09082L28.8594 14.768L28.9783 14.8838Z" fill="#094896"/>
<path id="Vector_82" opacity="0.7" d="M34.2616 8.71853L34.3264 8.76022L34.0083 8.00977L29.4297 16.2061L34.2616 8.71853Z" fill="#094896"/>
<path id="Vector_83" opacity="0.7" d="M33.9047 7.88162L33.9711 7.92022L33.6546 7.17285L29.5547 15.4109L33.9047 7.88162Z" fill="#094896"/>
<path id="Vector_84" opacity="0.7" d="M29.1328 17.7018L34.9792 10.3918L35.0395 10.4397L34.7183 9.68457L29.1328 17.7003V17.7018Z" fill="#094896"/>
<path id="Vector_85" opacity="0.7" d="M9.41582 4.34358L9.45752 4.28027L8.70703 4.59837L17.1107 9.33428L9.41582 4.34358Z" fill="#094896"/>
<path id="Vector_86" opacity="0.7" d="M10.2557 3.9856L10.3005 3.92383L9.54688 4.24193L17.3714 9.15696L10.2557 3.9856Z" fill="#094896"/>
<path id="Vector_87" opacity="0.7" d="M11.0901 3.62606L11.138 3.56738L10.3828 3.88702L18.3541 9.5031L11.0901 3.62606Z" fill="#094896"/>
<path id="Vector_88" opacity="0.7" d="M18.861 9.50545L11.926 3.26709L11.9769 3.20996L11.2188 3.53114L18.8333 9.50545H18.861Z" fill="#094896"/>
<path id="Vector_89" opacity="0.7" d="M29.1812 20.696L37.1386 15.4165L37.1802 15.4783L36.856 14.7139L29.1797 20.5694L29.1812 20.696Z" fill="#094896"/>
<path id="Vector_90" opacity="0.7" d="M29.1867 21.1924L37.4961 16.2557L37.5347 16.3175L37.2105 15.5547L29.1836 21.0534L29.1867 21.1924Z" fill="#094896"/>
<path id="Vector_91" opacity="0.7" d="M8.57834 4.70213L8.61694 4.63574L7.87109 4.95383L16.0292 9.04738L8.57834 4.70213Z" fill="#094896"/>
<path id="Vector_92" opacity="0.7" d="M15.5623 9.64775L6.06693 5.77657L6.08083 5.74414L5.78125 6.47298L15.4465 9.76665L15.5623 9.64775Z" fill="#094896"/>
<path id="Vector_93" opacity="0.7" d="M29.1945 21.6859L37.8576 17.0936L37.89 17.1554L37.5673 16.3926L29.1914 21.5377L29.1945 21.6859Z" fill="#094896"/>
<path id="Vector_94" opacity="0.7" d="M7.74241 5.06167L7.77793 4.99219L7.03516 5.30719L15.2072 8.94057L7.74241 5.06167Z" fill="#094896"/>
<path id="Vector_95" opacity="0.7" d="M6.90492 5.41811L6.93735 5.34863L6.19922 5.66209L14.3388 8.84921L6.90492 5.41811Z" fill="#094896"/>
<path id="Vector_96" opacity="0.7" d="M22.3241 9.47676L17.7933 0.749224L17.8551 0.716797L17.0938 1.03953L22.1774 9.47831L22.3241 9.47676Z" fill="#094896"/>
<path id="Vector_97" opacity="0.7" d="M22.811 9.47222L18.6292 0.389531L18.6833 0.363281L17.9297 0.68292L22.6565 9.47376L22.811 9.47222Z" fill="#094896"/>
<path id="Vector_98" opacity="0.7" d="M21.9718 1.03155L22.046 1.01148L21.3047 0.711914L24.1152 9.50584L21.9718 1.03155Z" fill="#094896"/>
<path id="Vector_99" opacity="0.7" d="M23.3018 9.46755L19.4675 0.03125L18.7695 0.326184L23.1396 9.46909L23.3018 9.46755Z" fill="#094896"/>
<path id="Vector_100" opacity="0.7" d="M21.1367 0.698135L21.2093 0.674974L20.4727 0.376953L23.6074 8.82654L21.1367 0.698135Z" fill="#094896"/>
<path id="Vector_101" opacity="0.7" d="M20.3015 0.362766L20.3726 0.336515L19.6406 0.0400391L23.061 8.13756L20.3015 0.362766Z" fill="#094896"/>
<path id="Vector_102" opacity="0.7" d="M20.3513 9.49386L14.4385 2.18849L14.4957 2.14062L13.7344 2.4649L20.2571 9.49386H20.3513Z" fill="#094896"/>
<path id="Vector_103" opacity="0.7" d="M19.284 9.50263L19.3612 9.50109L12.7643 2.90757L12.8184 2.85352L12.0586 3.17625L19.2948 9.49028L19.284 9.50263Z" fill="#094896"/>
<path id="Vector_104" opacity="0.7" d="M19.7802 9.49825L19.8559 9.49671L13.6018 2.54803L13.6574 2.49707L12.8945 2.8198L19.7817 9.49671L19.7802 9.49825Z" fill="#094896"/>
<path id="Vector_105" opacity="0.7" d="M20.8468 9.4885L15.2783 1.82798L15.337 1.7832L14.5742 2.10747L20.7371 9.4885H20.8468Z" fill="#094896"/>
<path id="Vector_106" opacity="0.7" d="M21.3369 9.48454L16.1129 1.46886L16.1746 1.42871L15.4102 1.75144L21.2134 9.48609L21.3369 9.48454Z" fill="#094896"/>
<path id="Vector_107" opacity="0.7" d="M21.8316 9.47919L16.9549 1.10835L17.0167 1.07129L16.2539 1.39556L21.6972 9.48073L21.8316 9.47919Z" fill="#094896"/>
<path id="Vector_108" opacity="0.7" d="M4.91878 29.2444L4.85547 29.2027L5.17358 29.9532L9.83247 21.8047L4.91878 29.2444Z" fill="#094896"/>
<path id="Vector_109" opacity="0.7" d="M32.4525 32.6112L32.4217 32.6807L33.1598 32.3673L24.9492 29.123L32.4525 32.6112Z" fill="#094896"/>
<path id="Vector_110" opacity="0.7" d="M31.6154 32.9695L31.5799 33.0374L32.3227 32.7224L24.0781 29.0273L31.6154 32.9695Z" fill="#094896"/>
<path id="Vector_111" opacity="0.7" d="M19.0469 37.6617L18.9759 37.6895L19.7186 37.9891L16.2148 29.8838L19.0469 37.6617Z" fill="#094896"/>
<path id="Vector_112" opacity="0.7" d="M30.7803 33.3273L30.7416 33.3937L31.489 33.0772L23.2383 28.9111L30.7803 33.3273Z" fill="#094896"/>
<path id="Vector_113" opacity="0.7" d="M29.9454 33.6859L29.9037 33.7508L30.6542 33.4327L22.4297 28.7725L29.9454 33.6859Z" fill="#094896"/>
<path id="Vector_114" opacity="0.7" d="M24.8359 27.2819L34.2803 29.7217L34.2633 29.7927L34.566 29.0268L24.9348 27.1816L24.8359 27.2819Z" fill="#094896"/>
<path id="Vector_115" opacity="0.7" d="M18.2012 37.3234L18.1287 37.3465L18.8761 37.6492L15.6641 29.1934L18.2012 37.3234Z" fill="#094896"/>
<path id="Vector_116" opacity="0.7" d="M23.793 28.348L33.2915 32.2531L33.5679 31.5536L23.9104 28.2275L23.793 28.348Z" fill="#094896"/>
<path id="Vector_117" opacity="0.7" d="M15.9492 28.5299L19.8901 38.0002L20.588 37.7037L16.1176 28.5283L15.9492 28.5299Z" fill="#094896"/>
<path id="Vector_118" opacity="0.7" d="M24.4922 27.6368L33.9536 30.5661L33.9336 30.6325L34.2362 29.8681L24.5973 27.5303L24.4922 27.6368Z" fill="#094896"/>
<path id="Vector_119" opacity="0.7" d="M24.1406 27.9922L33.6206 31.4094L33.6005 31.4681L33.9001 30.7114L24.2518 27.8779L24.1406 27.9922Z" fill="#094896"/>
<path id="Vector_120" opacity="0.7" d="M16.9453 28.5205L21.5686 37.282L21.5069 37.3144L22.2697 36.9917L17.0966 28.5205H16.9453Z" fill="#094896"/>
<path id="Vector_121" opacity="0.7" d="M17.9414 28.5123L23.2443 36.5604L23.1825 36.6021L23.9469 36.2778L18.0696 28.5107L17.9414 28.5123Z" fill="#094896"/>
<path id="Vector_122" opacity="0.7" d="M18.4414 28.5083L24.0839 36.2013L24.0237 36.2476L24.7865 35.9234L18.5572 28.5068L18.4414 28.5083Z" fill="#094896"/>
<path id="Vector_123" opacity="0.7" d="M25.1875 26.927L34.6134 28.8788L34.5995 28.9514L34.9037 28.1855L25.2786 26.8359L25.1875 26.927Z" fill="#094896"/>
<path id="Vector_124" opacity="0.7" d="M18.9414 28.5035L24.9206 35.8429L24.8635 35.8907L25.6263 35.5665L19.0403 28.502L18.9414 28.5035Z" fill="#094896"/>
<path id="Vector_125" opacity="0.7" d="M29.8711 22.9616L37.9134 20.4539L37.9365 20.5265L38.233 19.7822L29.8711 22.9616Z" fill="#094896"/>
<path id="Vector_126" opacity="0.7" d="M29.1047 34.0453L29.0599 34.107L29.8135 33.7874L21.6523 28.6191L29.1047 34.0453Z" fill="#094896"/>
<path id="Vector_127" opacity="0.7" d="M16.4492 28.525L20.7297 37.6416L20.6695 37.6694L21.4293 37.3482L16.6082 28.5234L16.4492 28.525Z" fill="#094896"/>
<path id="Vector_128" opacity="0.7" d="M19.5233 28.499H19.4414L25.7572 35.4832L25.7017 35.5342L26.463 35.2099L19.5217 28.499H19.5233Z" fill="#094896"/>
<path id="Vector_129" opacity="0.7" d="M20.9531 28.4854L28.2681 34.4057L28.2202 34.4644L28.9768 34.1432L20.9593 28.4854H20.9531Z" fill="#094896"/>
<path id="Vector_130" opacity="0.7" d="M19.9453 28.4941L26.5947 35.1231L26.5407 35.1772L27.3004 34.8544L20.0025 28.4941H19.9453Z" fill="#094896"/>
<path id="Vector_131" opacity="0.7" d="M20.4492 28.4893L27.4322 34.7632L27.3812 34.8203L28.1394 34.4991L20.4847 28.4893H20.4492Z" fill="#094896"/>
<path id="Vector_132" opacity="0.7" d="M17.4453 28.5172L22.4084 36.9204L22.3451 36.959L23.1095 36.6348L17.5858 28.5156L17.4453 28.5172Z" fill="#094896"/>
<path id="Vector_133" opacity="0.7" d="M36.9259 22.9783L36.9382 23.0539L37.2363 22.2988L27.8984 24.3773L36.9259 22.9783Z" fill="#094896"/>
<path id="Vector_134" opacity="0.7" d="M27.3008 24.777L36.5955 23.8212L36.6032 23.8969L36.9043 23.1387L27.307 24.7724L27.3008 24.777Z" fill="#094896"/>
<path id="Vector_135" opacity="0.7" d="M16.5108 36.6468L16.4367 36.6638L17.127 36.9417L14.5898 27.4189L16.5108 36.6468Z" fill="#094896"/>
<path id="Vector_136" opacity="0.7" d="M26.9453 25.1392L36.2631 24.6636L36.2677 24.7393L36.5689 23.9795L26.9716 25.1129L26.9453 25.1392Z" fill="#094896"/>
<path id="Vector_137" opacity="0.7" d="M13.8438 26.6191L14.8181 35.972L14.7424 35.9797L15.5037 36.287L13.8498 26.6253L13.8438 26.6191Z" fill="#094896"/>
<path id="Vector_138" opacity="0.7" d="M15.6644 36.3109L15.5903 36.3217L16.3485 36.629L14.2422 27.1865L15.6644 36.3109Z" fill="#094896"/>
<path id="Vector_139" opacity="0.7" d="M26.5938 25.4982L35.9347 25.5059L35.9362 25.5816L36.2374 24.8203L26.637 25.4549L26.5938 25.4982Z" fill="#094896"/>
<path id="Vector_140" opacity="0.7" d="M17.3099 37.0168L18.0341 37.3101L15.2344 28.7617L17.3099 37.0168Z" fill="#094896"/>
<path id="Vector_141" opacity="0.7" d="M26.2993 25.7985L26.2422 25.8572L35.6063 26.3498L35.6032 26.4239L35.9059 25.6611L26.2993 25.7985Z" fill="#094896"/>
<path id="Vector_142" opacity="0.7" d="M25.8867 26.2152L35.2724 27.1926L35.2647 27.2667L35.5689 26.5024L25.9577 26.1426L25.8867 26.2152Z" fill="#094896"/>
<path id="Vector_143" opacity="0.7" d="M25.5391 26.5717L34.9449 28.0356L34.9341 28.1082L35.2383 27.3438L25.621 26.4883L25.5391 26.5717Z" fill="#094896"/>
<path id="Vector_144" opacity="0.7" d="M37.5841 21.2948L37.6042 21.369L37.9007 20.6201L29.1836 23.4736L37.5841 21.2948Z" fill="#094896"/>
<path id="Vector_145" opacity="0.7" d="M37.2523 22.1372L37.2693 22.2129L37.5674 21.4609L28.5352 23.9424L37.2523 22.1372Z" fill="#094896"/>
</g>
<defs>
<radialGradient id="paint0_radial_123_2550" cx="0" cy="0" r="1" gradientUnits="userSpaceOnUse" gradientTransform="translate(19.6016 18.9977) rotate(90) scale(18.9977 19.1784)">
<stop offset="0.494787" stop-color="#2F8CE9"/>
<stop offset="0.917345" stop-color="#094896"/>
</radialGradient>
<clipPath id="clip0_123_2550">
<rect width="253" height="38" fill="white" transform="translate(0.601562)"/>
</clipPath>
</defs>
</svg>
