<svg width="29" height="20" viewBox="0 0 29 20" fill="none" xmlns="http://www.w3.org/2000/svg">
<path d="M16.9824 10.6849L6.14903 18.1849C6.02401 18.2714 5.8777 18.3221 5.72596 18.3314C5.57421 18.3407 5.42281 18.3083 5.28814 18.2378C5.15347 18.1672 5.04067 18.0612 4.96194 17.9311C4.88322 17.8011 4.84158 17.6519 4.84153 17.4999V2.4999C4.84143 2.3478 4.88296 2.19857 4.96162 2.06839C5.04028 1.9382 5.15307 1.83203 5.28777 1.76138C5.42247 1.69072 5.57393 1.65828 5.72575 1.66757C5.87757 1.67686 6.02395 1.72752 6.14903 1.81407L16.9824 9.31407C17.0927 9.39109 17.1829 9.49363 17.2451 9.61297C17.3073 9.7323 17.3398 9.8649 17.3398 9.99949C17.3398 10.1341 17.3073 10.2667 17.2451 10.386C17.1829 10.5053 17.0927 10.6079 16.9824 10.6849Z" fill="#E78F30"/>
<g opacity="0.66">
<path d="M24.9824 10.6849L14.149 18.1849C14.024 18.2714 13.8777 18.3221 13.726 18.3314C13.5742 18.3407 13.4228 18.3083 13.2881 18.2378C13.1535 18.1672 13.0407 18.0612 12.9619 17.9311C12.8832 17.8011 12.8416 17.6519 12.8415 17.4999V2.4999C12.8414 2.3478 12.883 2.19857 12.9616 2.06839C13.0403 1.9382 13.1531 1.83203 13.2878 1.76138C13.4225 1.69072 13.5739 1.65828 13.7257 1.66757C13.8776 1.67686 14.024 1.72752 14.149 1.81407L24.9824 9.31407C25.0927 9.39109 25.1829 9.49363 25.2451 9.61297C25.3073 9.7323 25.3398 9.8649 25.3398 9.99949C25.3398 10.1341 25.3073 10.2667 25.2451 10.386C25.1829 10.5053 25.0927 10.6079 24.9824 10.6849Z" fill="#E78F30"/>
</g>
</svg>
